<?xml version="1.0" encoding="utf-8"?>
<!-- Generator: Adobe Illustrator 20.1.0, SVG Export Plug-In . SVG Version: 6.00 Build 0)  -->
<svg version="1.1" id="Layer_1" xmlns="http://www.w3.org/2000/svg" xmlns:xlink="http://www.w3.org/1999/xlink" x="0px" y="0px"
	 viewBox="0 0 595.3 525.6" style="enable-background:new 0 0 595.3 525.6;" xml:space="preserve">
<style type="text/css">
	.st0{fill:#010202;}
	.st1{fill:#FFFFFF;}
	.st2{fill:none;stroke:#1D1D1B;stroke-width:0.8652;stroke-miterlimit:10;}
	.st3{fill:none;}
	.st4{fill:none;stroke:#000000;stroke-width:3.8788;stroke-linecap:round;stroke-linejoin:round;stroke-miterlimit:10;}
</style>
<path class="st0" d="M545,430.9c6.6,0,11.8-5.2,11.8-12c0-6.6-5.2-11.9-11.7-11.9H545c-6.5,0-11.8,5.3-11.8,11.9
	C533.2,425.7,538.4,430.9,545,430.9z M545,408.9L545,408.9c5.3,0,9.6,4.5,9.6,10.1c0,5.6-4.2,10.1-9.5,10.1c-5.3,0-9.6-4.4-9.6-10.1
	C535.4,413.4,539.7,408.9,545,408.9z"/>
<path class="st0" d="M542.8,420.2h1.5c1.7,0,2.5,0.6,2.9,2.3c0.3,1.7,0.6,3,0.9,3.4h2.2c-0.2-0.4-0.5-1.2-0.8-3.3
	c-0.3-2-1.1-3-2.2-3.2v-0.1c1.4-0.4,2.6-1.5,2.6-3.2c0-1.3-0.4-2.2-1.2-2.8c-0.8-0.6-2.1-1-4.1-1c-1.6,0-2.6,0.2-3.8,0.3v13.3h2.1
	V420.2z M542.8,414c0.4-0.1,0.8-0.1,1.5-0.1c2.4,0,3.2,1.2,3.2,2.3c0,1.6-1.5,2.3-3.2,2.3h-1.5V414z"/>
<path class="st0" d="M506.9,480.4L506.9,480.4c-0.1-5-0.7-15.4-3.4-23.8c-3.6-11.1-7.2-18.5-20.3-18.6l-28.6,0l0,4.2
	c4.2,0.2,4.7,1.3,4.7,1.3l0,76.5c0,0-0.5,1.1-4.6,1.3l0,4.2l28.6,0c13.1-0.1,16.8-7.5,20.3-18.6c2.7-8.3,3.3-18.8,3.4-23.8h0
	c0,0,0-0.5,0-1.4C506.9,480.9,506.9,480.4,506.9,480.4z M487,515.4c0,4.4-1.9,5.7-3.4,6h-6.5v-78.6h6.4c1.5,0.3,3.4,1.5,3.4,6V515.4
	z"/>
<path class="st0" d="M66.7,442.2c4.2,0.2,4.7,1.3,4.7,1.3v76.5c0,0-0.5,1.1-4.7,1.3l0,4.2h45v-20.5h-4.1c-0.6,13.4-4.3,15-4.3,15
	H89.2V484h7.2h2.1c0,0,2.1,0.9,2.4,8.3h3.1V470h-3.1c-0.4,7.5-2.4,8.3-2.4,8.3h-2.1h-7.2v-34.8h14.1c0,0,3.7,1.6,4.3,15l4.1,0V438
	h-45V442.2z"/>
<path class="st0" d="M345.7,442.2c4.2,0.2,4.7,1.3,4.7,1.3v76.5c0,0-0.5,1.1-4.7,1.3l0,4.2h45v-20.5h-4.1c-0.6,13.4-4.3,15-4.3,15
	h-14.1l0-36.1h7.2h2.1c0,0,2.1,0.9,2.4,8.3h3.1V470h-3.1c-0.4,7.5-2.4,8.3-2.4,8.3h-2.1h-7.2l0-34.8h14.1c0,0,3.7,1.6,4.3,15l4.1,0
	V438h-45V442.2z"/>
<path class="st0" d="M400.1,442.2c4.2,0.2,4.7,1.3,4.7,1.3v76.5c0,0-0.5,1.1-4.7,1.3l0,4.2h45v-20.5H441c-0.6,13.4-4.3,15-4.3,15
	h-14.1V484h7.2h2.1c0,0,2.1,0.9,2.4,8.3h3.1V470h-3.1c-0.4,7.5-2.4,8.3-2.4,8.3h-2.1h-7.2v-34.8h14.1c0,0,3.7,1.6,4.3,15l4.1,0V438
	h-45V442.2z"/>
<path class="st0" d="M154.9,442.2c4.2,0.2,4.7,1.3,4.7,1.3v1.2l0,46.8L142,438.1l-21.3,0l0,4.2c4.2,0.2,4.7,1.3,4.7,1.3v1.2v74.2
	v1.2c0,0-0.5,1.1-4.7,1.3l0,4.2h14.7l0-4.2c-4.2-0.2-4.7-1.3-4.7-1.3v-1.2l0-57.3l21.2,64h13l0-80.9v-1.2c0,0,0.5-1.1,4.7-1.3l0-4.2
	h-14.7L154.9,442.2z"/>
<path class="st0" d="M227.7,442.2c4.2,0.2,4.7,1.3,4.7,1.3v1.2v74.2v1.2c0,0-0.5,1.1-4.7,1.3l0,4.2h27.2v-4.2
	c-4.2-0.2-4.7-1.3-4.7-1.3v-1.2v-74.2v-1.2c0,0,0.5-1.1,4.7-1.3V438h-27.2L227.7,442.2z"/>
<path class="st0" d="M218.4,489.1c-3.2-6.5-7.2-11.4-7.2-11.4c-10.2-13-13.6-18.2-13.6-18.2s-4.4-6.5-3.1-12.6
	c0.6-2.8,3.1-4.9,6.1-4.9c2.3,0,4.3,1.2,5.4,3c0,0,3.2,4,3.3,14.4h9.1v-21.4h-5.2l0,0c-1,2.1-3,2.6-3.1,2.6c-3.2-2.8-7.4-4.5-12-4.5
	c-5.6,0-10.5,2.5-13.9,6.4l0,0c-2.9,3.4-4.3,7.4-4.3,7.4c-5.7,15.4,4.5,27,8.2,32.2c3.5,4.5,7.7,10,14.7,19.1
	c2.8,3.7,4.2,7.8,4.3,11.3l0,0.2c0,4.8-4,8.8-8.8,8.8c-4.9,0-8.8-3.9-8.8-8.8l0-12.9h-10v25.6l5.9,0c1.1-2.2,3.1-2.6,3.1-2.6
	c3.6,2.8,8.1,4.4,13.1,4.4c11.8,0,21.3-9.5,21.3-21.2C222.8,506.3,222.8,497.7,218.4,489.1L218.4,489.1z"/>
<path class="st0" d="M336.4,489.1c-3.2-6.5-7.2-11.4-7.2-11.4c-10.2-13-13.6-18.2-13.6-18.2s-4.4-6.5-3.1-12.6
	c0.6-2.8,3.1-4.9,6.1-4.9c2.3,0,4.3,1.2,5.4,3c0,0,3.2,4,3.3,14.4h9.1v-21.4h-5.2l0,0c-1,2.1-3,2.6-3.1,2.6c-3.2-2.8-7.4-4.5-12-4.5
	c-5.6,0-10.5,2.5-13.9,6.4l0,0c-2.9,3.4-4.3,7.4-4.3,7.4c-5.7,15.4,4.5,27,8.2,32.2c3.5,4.5,7.7,10,14.7,19.1
	c2.8,3.7,4.2,7.8,4.3,11.3l0,0.2c0,4.8-4,8.8-8.8,8.8c-4.9,0-8.8-3.9-8.8-8.8l0-12.9h-10v25.6l5.9,0c1.1-2.2,3.1-2.6,3.1-2.6
	c3.6,2.8,8.1,4.4,13.1,4.4c11.8,0,21.3-9.5,21.3-21.2C340.8,506.3,340.8,497.7,336.4,489.1L336.4,489.1z"/>
<path class="st0" d="M555.2,489.1c-3.2-6.5-7.2-11.4-7.2-11.4c-10.2-13-13.6-18.2-13.6-18.2s-4.4-6.5-3.1-12.6
	c0.6-2.8,3.1-4.9,6.1-4.9c2.3,0,4.3,1.2,5.4,3c0,0,3.2,4,3.3,14.4h9.1v-21.4h-5.2l0,0c-1,2.1-3,2.6-3.1,2.6c-3.2-2.8-7.4-4.5-12-4.5
	c-5.6,0-10.5,2.5-13.9,6.4l0,0c-2.9,3.4-4.3,7.4-4.3,7.4c-5.7,15.4,4.5,27,8.2,32.2c3.5,4.5,7.7,10,14.7,19.1
	c2.8,3.7,4.2,7.8,4.3,11.3l0,0.2c0,4.8-4,8.8-8.8,8.8s-8.8-3.9-8.8-8.8l0-12.9h-10v25.6l5.9,0c1.1-2.2,3.1-2.6,3.1-2.6
	c3.6,2.8,8.1,4.4,13.1,4.4c11.8,0,21.3-9.5,21.3-21.2C559.6,506.3,559.6,497.7,555.2,489.1L555.2,489.1z"/>
<path class="st0" d="M57.4,489.1c-3.2-6.5-7.2-11.4-7.2-11.4c-10.2-13-13.6-18.2-13.6-18.2s-4.4-6.5-3.1-12.6
	c0.6-2.8,3.1-4.9,6.1-4.9c2.3,0,4.3,1.2,5.4,3c0,0,3.2,4,3.3,14.4h9.1v-21.4h-5.2l0,0c-1,2.1-3,2.6-3.1,2.6c-3.2-2.8-7.4-4.5-12-4.5
	c-5.6,0-10.5,2.5-13.9,6.4l0,0C20.3,446,19,450,19,450c-5.7,15.4,4.5,27,8.2,32.2c3.5,4.5,7.7,10,14.7,19.1
	c2.8,3.7,4.2,7.8,4.3,11.3l0,0.2c0,4.8-4,8.8-8.8,8.8s-8.8-3.9-8.8-8.8l0-12.9h-10v25.6l5.9,0c1.1-2.2,3.1-2.6,3.1-2.6
	c3.6,2.8,8.1,4.4,13.1,4.4c11.8,0,21.3-9.5,21.3-21.2C61.8,506.3,61.8,497.7,57.4,489.1L57.4,489.1z"/>
<g>
	<path class="st1" d="M288.6,0C134.9,0,10.3,124.6,10.3,278.3c0,51.5,14,99.7,38.4,141.1h479.8c24.4-41.4,38.4-89.6,38.4-141.1
		C566.9,124.6,442.3,0,288.6,0z"/>
</g>
<path class="st1" d="M460.8,75.7c0.1,0.2,0.3,0.3,0.5,0.5l0.1,0.1c0.2,0.1,0.4,0.3,0.6,0.4c0.4,0.2,1.1,0.4,1.7,0.3
	c1.1-1.5,2.9-2.9,5-3.4l-5.9-5c-0.2,2.1-1.2,4.2-2.5,5.5C460.2,74.7,460.6,75.4,460.8,75.7z"/>
<ellipse transform="matrix(0.8094 -0.5872 0.5872 0.8094 25.5769 320.0619)" class="st1" cx="505.9" cy="120.6" rx="2.5" ry="2.8"/>
<g>
	<path class="st2" d="M469.4,74c-2.2,0.4-4,1.4-5.2,3c-0.4,0.1-0.8,0.2-1.3,0.1c-0.9-0.2-1.7-0.6-2.3-1.3c-0.3-0.4-0.7-1.3-0.7-2
		c1.5-1.5,2.3-3.4,2.4-5.8C464.7,70,467,72,469.4,74z"/>
</g>
<g>
	<path class="st3" d="M469.4,74c-2.2,0.4-4,1.4-5.2,3c-0.4,0.1-0.8,0.2-1.3,0.1c-0.9-0.2-1.7-0.6-2.3-1.3c-0.3-0.4-0.7-1.3-0.7-2
		c1.5-1.5,2.3-3.4,2.4-5.8C464.7,70,467,72,469.4,74z"/>
</g>
<path class="st1" d="M460.8,75.7c0.1,0.2,0.3,0.3,0.5,0.5l0.1,0.1c0.2,0.1,0.4,0.3,0.6,0.4c0.4,0.2,1.1,0.4,1.7,0.3
	c1.1-1.5,2.9-2.9,5-3.4l-5.9-5c-0.2,2.1-1.2,4.2-2.5,5.5C460.2,74.7,460.6,75.4,460.8,75.7z"/>
<ellipse transform="matrix(0.8094 -0.5872 0.5872 0.8094 25.5769 320.0619)" class="st1" cx="505.9" cy="120.6" rx="2.5" ry="2.8"/>
<g>
	<path class="st2" d="M469.4,74c-2.2,0.4-4,1.4-5.2,3c-0.4,0.1-0.8,0.2-1.3,0.1c-0.9-0.2-1.7-0.6-2.3-1.3c-0.3-0.4-0.7-1.3-0.7-2
		c1.5-1.5,2.3-3.4,2.4-5.8C464.7,70,467,72,469.4,74z"/>
</g>
<g>
	<path class="st3" d="M469.4,74c-2.2,0.4-4,1.4-5.2,3c-0.4,0.1-0.8,0.2-1.3,0.1c-0.9-0.2-1.7-0.6-2.3-1.3c-0.3-0.4-0.7-1.3-0.7-2
		c1.5-1.5,2.3-3.4,2.4-5.8C464.7,70,467,72,469.4,74z"/>
</g>
<path class="st0" d="M564.1,278.2c0-152.2-123.4-275.5-275.5-275.5S13,126.1,13,278.2c0,50.2,13.4,97.2,36.9,137.8l0.4,0.6l476.5,0
	l0.4-0.7l0,0c0.4-0.7,0.9-1.5,1.3-2.2l0.1-0.2h0C551.1,373.6,564.1,327.4,564.1,278.2z M526.3,403c-1.2-0.6-1.7-2.2-1-3.6
	c0.7-1.4,2.3-2,3.5-1.3s1.7,2.2,1,3.6C529.1,403,527.5,403.6,526.3,403z M521.7,375.4c0.6,0.6,1.4,2.1,1.4,3.6s0.1,3.4,1.8,5
	c0,0-0.6,0.2-1.3,0.7c-3.4,2-6.5,3.9-9.9,5.2c-1.4,0.6-2.1,0.4-2.5,0.2c-0.6-0.3-0.7-0.8-1.4-1.1l0-0.1c5.2-10.3,9.6-20.9,13.3-31.9
	c0.6,0.3,1.2,0,1.7,0.2c0.4,0.1,1,0.5,1.6,1.9c1.5,3.5,2.3,7.2,3.4,11.2c0.1,0.2,0.2,0.5,0.3,0.9c-2.3,0-3.8,1.3-4.8,2.3
	c-1,1-2.7,1.5-3.5,1.5c-0.2,0-0.3,0-0.4,0C521.5,375.2,521.6,375.3,521.7,375.4z M448.7,62.8c-0.8,1.1-2.5,1.3-3.7,0.4
	c-1.2-0.9-1.6-2.5-0.8-3.7c0.8-1.1,2.5-1.3,3.7-0.4C449.2,60,449.6,61.7,448.7,62.8z M433.9,48.2c-1.7,0.9-3.1,2.3-3.9,3.9
	c-0.5,0.1-1.3,0.1-1.7-0.1c-0.2-0.1-0.4-0.2-0.6-0.3l-0.1-0.1c-0.2-0.1-0.4-0.3-0.6-0.4c-0.3-0.3-0.8-0.9-0.9-1.4
	c1-1.4,1.7-3.4,1.7-5.3C429.8,45.7,431.9,47,433.9,48.2z M413,40.4c-0.6,1.2-2.2,1.7-3.6,1c-1.4-0.7-2-2.3-1.3-3.5
	c0.6-1.2,2.2-1.7,3.6-1C413.1,37.6,413.7,39.1,413,40.4z M374.3,23.8c-0.4,1.3-2,2-3.4,1.5s-2.3-1.9-1.9-3.2c0.4-1.3,2-2,3.4-1.5
	C373.9,21.1,374.7,22.5,374.3,23.8z M348.6,12.8c2.4,0.5,4.7,1.1,7.1,1.7c-1.4,1.4-2.3,3.2-2.6,5c-0.4,0.3-1.2,0.5-1.6,0.5
	c-0.2,0-0.5,0-0.7-0.1l-0.1,0c-0.2-0.1-0.5-0.1-0.7-0.2c-0.4-0.2-1-0.7-1.3-1.1C349.3,16.8,349.3,14.7,348.6,12.8z M333.4,13.5
	c-0.2,1.4-1.6,2.3-3.1,2c-1.5-0.2-2.6-1.5-2.4-2.9c0.2-1.4,1.6-2.3,3.1-2S333.6,12.2,333.4,13.5z M306.4,6.7
	c2.4,0.2,4.8,0.3,7.2,0.6c-1.2,1.6-1.8,3.6-1.8,5.3c-0.4,0.3-1.1,0.6-1.6,0.7c-0.2,0-0.5,0-0.7,0l-0.1,0c-0.2,0-0.5-0.1-0.7-0.1
	c-0.4-0.1-1.1-0.5-1.4-0.9C307.6,10.5,307.3,8.4,306.4,6.7z M269.9,12.3c-0.3,0.4-1,0.8-1.4,0.9c-0.2,0.1-0.5,0.1-0.7,0.1l-0.1,0
	c-0.2,0-0.5,0-0.7,0c-0.4-0.1-1.1-0.3-1.5-0.7c0-1.8-0.6-3.8-1.8-5.3c2.4-0.2,4.8-0.4,7.3-0.6C270,8.4,269.6,10.5,269.9,12.3z
	 M247,15.6c-1.5,0.2-2.9-0.7-3.1-2c-0.2-1.4,0.8-2.7,2.4-2.9c1.5-0.2,2.9,0.7,3.1,2C249.6,14,248.5,15.3,247,15.6z M228.5,18.5
	c-0.3,0.5-0.9,0.9-1.3,1.1c-0.2,0.1-0.4,0.2-0.7,0.2l-0.1,0c-0.2,0.1-0.5,0.1-0.7,0.1c-0.4,0-1.2-0.2-1.6-0.5
	c-0.2-1.8-1.2-3.7-2.6-5c2.4-0.6,4.8-1.2,7.1-1.7C228,14.6,227.9,16.8,228.5,18.5z M206.4,25.3c-1.5,0.5-3-0.2-3.4-1.5
	c-0.4-1.3,0.4-2.8,1.9-3.2c1.5-0.5,3,0.2,3.4,1.5C208.7,23.4,207.8,24.9,206.4,25.3z M167.8,41.3c-1.4,0.7-3,0.3-3.6-1
	c-0.6-1.2,0-2.8,1.3-3.5c1.4-0.7,3-0.3,3.6,1C169.8,39.1,169.2,40.6,167.8,41.3z M151.1,49.8c-0.1,0.5-0.6,1.2-0.9,1.4
	c-0.2,0.2-0.4,0.3-0.6,0.4l-0.1,0.1c-0.2,0.1-0.4,0.2-0.6,0.3c-0.4,0.1-1.2,0.2-1.7,0.1c-0.8-1.6-2.2-3.1-4-3.9
	c2-1.3,4.1-2.6,6.2-3.8C149.4,46.4,150.1,48.4,151.1,49.8z M132.2,63.2c-1.2,0.9-2.9,0.7-3.7-0.4c-0.8-1.1-0.5-2.8,0.8-3.7
	c1.2-0.9,2.9-0.7,3.7,0.4C133.8,60.6,133.4,62.3,132.2,63.2z M117,74.2c0,0.5-0.4,1.2-0.6,1.6c-0.1,0.2-0.3,0.3-0.5,0.5l-0.1,0.1
	c-0.2,0.1-0.4,0.3-0.6,0.4c-0.4,0.2-1.1,0.4-1.7,0.3c-1-1.4-2.6-2.7-4.5-3.2c1.8-1.6,3.6-3.1,5.5-4.7
	C114.9,71.1,115.8,72.9,117,74.2z M55.4,375c-0.8,0-2.5-0.5-3.5-1.5s-2.5-2.3-4.8-2.3c0.2-0.4,0.3-0.7,0.3-0.9
	c1.1-4,1.9-7.7,3.4-11.2c0.6-1.4,1.2-1.8,1.6-1.9c0.5-0.2,1,0,1.6-0.2c3.7,11,8.2,21.7,13.4,32c-0.6,0.3-0.8,0.8-1.3,1.1
	c-0.4,0.2-1.1,0.4-2.5-0.2c-3.4-1.4-6.5-3.3-9.9-5.2c-0.8-0.4-1.3-0.7-1.3-0.7c1.7-1.6,1.8-3.6,1.8-5c0-1.5,0.9-3,1.4-3.6
	c0.1-0.1,0.2-0.3,0.3-0.4C55.7,375,55.6,375,55.4,375z M48.4,398c1.2-0.6,2.8,0,3.5,1.3c0.7,1.4,0.3,3-1,3.6c-1.2,0.6-2.8,0-3.5-1.3
	C46.7,400.3,47.1,398.7,48.4,398z M43.1,337.3c-0.8-0.1-2.4-0.8-3.3-2c-0.9-1.2-2.1-2.7-4.4-3c0.2-0.4,0.4-0.7,0.5-0.9
	c1.7-3.8,3.1-7.3,5.1-10.5c0.8-1.3,1.5-1.6,1.9-1.6c0.5-0.1,1,0.2,1.6,0.1c1.9,11.5,4.7,22.8,8.2,33.7c-0.6,0.2-0.9,0.7-1.4,0.8
	c-0.4,0.1-1.1,0.2-2.4-0.6c-3.1-1.9-5.9-4.2-8.9-6.7c-0.7-0.6-1.2-0.9-1.2-0.9c1.9-1.4,2.3-3.2,2.5-4.7c0.2-1.4,1.3-2.8,2-3.3
	c0.2-0.1,0.3-0.2,0.3-0.3C43.4,337.4,43.3,337.3,43.1,337.3z M29.4,335.1c-2,1.1-4.3,1.2-6.5,0.2c-0.3-1.5-0.7-3.1-1-4.6
	c1.8,0.2,4-0.5,5.7-2c2.2-1.9,3.7-5.6,3.6-9.2c0-0.1,0-0.2,0-0.2c-1-3.5-3.6-6.5-6.3-7.6c-2.1-0.9-4.4-0.8-6.1-0.1
	c-0.2-1.6-0.4-3.1-0.5-4.7c1.8-1.7,4-2.4,6.3-1.9c2.4,0.5,4.8,2,7.7,5.1c0.6,0.7,1.3,1.4,1.9,2.1c0.8,0.9,1.6,1.8,2.4,2.7
	c0.8,0.8,1.7,1.6,2.6,2.2c0.6,0.4,1.2,0.6,1.6,0.8c-0.4,0.3-0.8,0.7-1.3,1.2c-0.7,0.8-1.3,1.8-1.8,2.9c-0.5,1.1-1,2.2-1.5,3.3
	c-0.4,0.9-0.8,1.8-1.2,2.6C33.3,331.7,31.6,333.9,29.4,335.1z M30.4,341.5c0,0.4-0.2,1.2-0.5,1.6c-1.6,0.2-3.3,1-4.6,2.3
	c-0.6-2.2-1.1-4.4-1.6-6.6c1.8,0.5,3.7,0.5,5.3,0c0.5,0.3,0.9,0.9,1.1,1.3c0.1,0.2,0.2,0.4,0.2,0.7l0,0.1
	C30.4,341,30.4,341.2,30.4,341.5z M21.1,321c-0.2-1.5,0.7-2.9,2-3.1c1.4-0.2,2.7,0.8,2.9,2.4c0.2,1.5-0.7,2.9-2,3.1
	C22.6,323.6,21.3,322.5,21.1,321z M23,287.2c2.5-1.5,4.5-5,5-8.5c0-0.1,0-0.2,0-0.2c-0.5-3.6-2.5-7-5-8.5c-2-1.2-4.3-1.5-6-1
	c0.1-1.6,0.1-3.1,0.2-4.7c2.1-1.4,4.4-1.8,6.6-1c2.3,0.9,4.4,2.8,6.8,6.2c0.5,0.8,1,1.6,1.6,2.4c0.6,1,1.3,2.1,2,3
	c0.7,1,1.4,1.9,2.3,2.6c0.5,0.5,1,0.8,1.5,1c-0.4,0.2-0.9,0.6-1.5,1c-0.8,0.7-1.6,1.6-2.3,2.6c-0.7,1-1.3,2-2,3
	c-0.5,0.8-1,1.7-1.6,2.4c-2.4,3.5-4.5,5.4-6.8,6.2c-2.1,0.8-4.5,0.5-6.5-0.9c-0.1-1.6-0.2-3.1-0.2-4.7C18.7,288.7,21,288.4,23,287.2
	z M17.7,278.6c0-1.5,1.1-2.8,2.5-2.8c1.4,0,2.5,1.2,2.5,2.8c0,1.5-1.1,2.8-2.5,2.8C18.8,281.4,17.7,280.1,17.7,278.6z M24.8,245.5
	c2.7-1.1,5.2-4.2,6.3-7.7c0-0.1,0-0.2,0-0.2c0.1-3.6-1.4-7.3-3.6-9.2c-1.8-1.5-4.1-2.2-5.9-1.9c0.3-1.5,0.6-3,0.9-4.5
	c2.3-1.1,4.7-1.1,6.7,0c2.1,1.2,3.9,3.4,5.7,7.2c0.4,0.8,0.8,1.7,1.2,2.6c0.5,1.1,1,2.2,1.5,3.3c0.5,1.1,1.1,2.1,1.8,2.9
	c0.4,0.5,0.9,1,1.3,1.2c-0.4,0.2-1,0.4-1.6,0.8c-0.9,0.6-1.8,1.4-2.6,2.2c-0.8,0.8-1.6,1.8-2.4,2.7c-0.6,0.7-1.3,1.5-1.9,2.1
	c-2.9,3-5.3,4.6-7.7,5.1c-2.3,0.5-4.6-0.2-6.4-2c0.2-1.6,0.3-3.1,0.5-4.6C20.3,246.4,22.7,246.4,24.8,245.5z M21,236.2
	c0.2-1.5,1.5-2.6,2.9-2.4c1.4,0.2,2.3,1.6,2,3.1c-0.2,1.5-1.5,2.6-2.9,2.4C21.7,239.1,20.7,237.7,21,236.2z M23.3,218.5
	c0.5-2.3,1.1-4.6,1.6-6.9c1.4,1.4,3.2,2.3,4.9,2.6c0.3,0.4,0.4,1.2,0.4,1.6c0,0.2,0,0.5-0.1,0.7l0,0.1c-0.1,0.2-0.1,0.5-0.2,0.7
	c-0.2,0.4-0.7,1-1.1,1.2C27.1,217.9,25.1,217.9,23.3,218.5z M36.9,298.1c-0.8-0.2-2.2-1.2-2.9-2.5c-0.7-1.3-1.7-3-3.9-3.7
	c0.3-0.3,0.5-0.6,0.6-0.8c2.2-3.5,4.2-6.7,6.7-9.6c1-1.2,1.7-1.3,2.1-1.3c0.6,0,1,0.3,1.6,0.3c0.1,11.7,1,23.3,2.7,34.6
	c-0.6,0.1-0.9,0.5-1.5,0.6c-0.4,0.1-1.1,0.1-2.3-0.9c-2.8-2.3-5.2-5.1-7.8-8c-0.6-0.7-1.1-1.1-1.1-1.1c2.1-1,2.8-2.8,3.2-4.2
	c0.4-1.4,1.8-2.6,2.5-2.9c0.2-0.1,0.3-0.2,0.4-0.3C37.2,298.3,37.1,298.2,36.9,298.1z M41.2,271.5c0,1.6-0.1,3.3-0.1,4.9
	c-0.6,0-1,0.4-1.6,0.4c-0.4,0-1.1-0.1-2.1-1.3c-2.4-2.7-4.3-5.9-6.4-9.2c-0.5-0.8-0.9-1.2-0.9-1.2c2.2-0.7,3.2-2.4,3.9-3.7
	c0.7-1.3,2.1-2.3,2.9-2.5c0.2-0.1,0.3-0.1,0.4-0.2c-0.1-0.1-0.2-0.2-0.4-0.2c-0.7-0.4-2-1.5-2.5-2.9c-0.4-1.4-1.2-3.2-3.2-4.2
	c0.3-0.3,0.5-0.5,0.7-0.7c2.7-3.1,5.2-6,8.1-8.4c1.2-1,1.9-1,2.3-0.9c0.6,0.1,0.9,0.5,1.5,0.6C42.3,251.6,41.5,261.5,41.2,271.5z
	 M23,255.4c0.3,0.4,0.6,1.1,0.7,1.6c0,0.2,0,0.5,0,0.7l0,0.1c0,0.2-0.1,0.5-0.1,0.7c-0.1,0.4-0.5,1.1-0.9,1.4
	c-1.7-0.3-3.6,0-5.3,0.8c0.1-2.3,0.3-4.7,0.5-7C19.4,254.8,21.3,255.4,23,255.4z M22.7,297.3c0.4,0.3,0.8,1,0.9,1.4
	c0.1,0.2,0.1,0.5,0.1,0.7l0,0.1c0,0.2,0,0.5,0,0.7c-0.1,0.4-0.3,1.1-0.7,1.5c-1.7,0-3.5,0.5-5,1.6c-0.2-2.3-0.4-4.6-0.6-6.9
	C19.1,297.3,21,297.6,22.7,297.3z M44.4,237.7c-0.6-0.1-1.1,0.2-1.6,0.1c-0.4-0.1-1.1-0.3-1.9-1.6c-1.9-3.1-3.3-6.5-4.9-10
	c-0.4-0.8-0.7-1.3-0.7-1.3c2.3-0.3,3.5-1.8,4.4-3c0.8-1.2,2.5-1.9,3.3-2c0.2,0,0.3-0.1,0.4-0.1c-0.1-0.1-0.2-0.2-0.3-0.3
	c-0.6-0.5-1.8-1.8-2-3.3c-0.2-1.4-0.7-3.3-2.5-4.7c0.4-0.2,0.6-0.4,0.8-0.6c3.2-2.6,6.1-5.1,9.3-7.1c1.3-0.8,2-0.7,2.4-0.6
	c0.5,0.2,0.8,0.6,1.4,0.8C49,214.9,46.3,226.1,44.4,237.7z M48.2,201.5c-1,0.4-2,1.1-3,1.8c-1,0.7-1.9,1.5-2.8,2.3
	c-0.8,0.6-1.5,1.2-2.2,1.8c-3.3,2.5-5.9,3.7-8.4,3.8c-2.3,0.1-4.5-1-6-3.1c0.4-1.5,0.8-3,1.2-4.5c1.5,1.1,3.9,1.5,6.2,1
	c2.8-0.7,5.8-3.3,7.4-6.6c0-0.1,0.1-0.2,0.1-0.2c0.6-3.6-0.2-7.5-2.1-9.7c-1.6-1.8-3.7-2.8-5.6-2.8c0.5-1.4,1.1-2.9,1.6-4.3
	c2.5-0.8,4.9-0.4,6.7,1.1c1.9,1.5,3.3,4,4.5,8c0.3,0.9,0.5,1.8,0.7,2.8c0.3,1.2,0.6,2.4,1,3.5c0.4,1.1,0.8,2.2,1.4,3.2
	c0.4,0.6,0.7,1.1,1.1,1.4C49.5,201.1,48.9,201.2,48.2,201.5z M30.9,194.8c0.5-1.5,1.9-2.3,3.2-1.9c1.3,0.4,2,2,1.5,3.4
	c-0.5,1.5-1.9,2.3-3.2,1.9C31.1,197.8,30.4,196.2,30.9,194.8z M43.2,176.1c0,0.2-0.1,0.5-0.2,0.7l0,0.1c-0.1,0.2-0.2,0.4-0.3,0.6
	c-0.2,0.3-0.8,0.9-1.3,1.1c-1.5-0.8-3.5-1.2-5.4-0.8c0.7-1.8,1.5-3.7,2.3-5.5c0.2-0.4,0.3-0.7,0.5-1.1c1.1,1.6,2.8,2.8,4.5,3.3
	C43.3,174.9,43.3,175.7,43.2,176.1z M32.6,358.9c1.3-0.4,2.8,0.4,3.2,1.9c0.5,1.5-0.2,3-1.5,3.4c-1.3,0.4-2.8-0.4-3.2-1.9
	C30.6,360.9,31.3,359.4,32.6,358.9z M39.1,385.7c-0.9-2.1-1.8-4.1-2.6-6.2c1.8,0.2,3.7-0.1,5.1-0.9c0.5,0.2,1.1,0.7,1.3,1.1
	c0.1,0.2,0.2,0.4,0.3,0.6l0,0.1c0.1,0.2,0.2,0.4,0.2,0.7c0.1,0.4,0,1.2-0.2,1.7C41.8,383.2,40.2,384.3,39.1,385.7z M41.5,375
	c-1.7,1.4-4,1.8-6.3,1.2c-0.6-1.5-1.1-3-1.7-4.5c1.8-0.1,3.8-1.1,5.2-2.8c1.9-2.2,2.8-6.1,2.1-9.7c0-0.1-0.1-0.2-0.1-0.2
	c-1.6-3.3-4.6-5.9-7.4-6.6c-2.2-0.5-4.4-0.1-5.9,0.8c-0.4-1.5-0.9-3-1.3-4.6c1.5-1.9,3.6-2.9,5.8-2.8c2.5,0.1,5,1.3,8.4,3.8
	c0.7,0.6,1.5,1.2,2.2,1.8c0.9,0.8,1.9,1.6,2.8,2.3c1,0.7,2,1.3,3,1.8c0.6,0.3,1.2,0.4,1.7,0.5c-0.3,0.3-0.7,0.8-1.1,1.4
	c-0.6,0.9-1,2-1.4,3.2c-0.4,1.1-0.7,2.3-1,3.5c-0.2,0.9-0.5,1.9-0.7,2.8C44.8,371,43.4,373.5,41.5,375z M53.8,200
	c-0.6-0.2-1.1,0-1.6-0.1c-0.4-0.1-1-0.5-1.6-1.9c-1.4-3.3-2.3-6.9-3.3-10.7c-0.2-0.9-0.5-1.4-0.5-1.4c2.3,0,3.8-1.3,4.8-2.3
	c1-1,2.7-1.5,3.5-1.5c0.2,0,0.3,0,0.5-0.1c-0.1-0.1-0.1-0.2-0.3-0.4c-0.6-0.6-1.4-2.1-1.4-3.6c0-1.5-0.1-3.4-1.8-5
	c0.4-0.2,0.7-0.3,0.9-0.4c3.6-2.1,6.8-4.1,10.3-5.5c1.4-0.6,2.1-0.4,2.5-0.2c0.5,0.2,0.7,0.8,1.3,1C61.9,178.2,57.5,188.9,53.8,200z
	 M63.2,164.8c-1.1,0.3-2.1,0.7-3.2,1.3c-1.1,0.5-2.1,1.2-3.2,1.8c-0.8,0.5-1.7,1-2.5,1.4c-3.7,2-6.4,2.8-8.9,2.5
	c-2.3-0.3-4.3-1.7-5.5-4c0.6-1.4,1.3-2.8,1.9-4.2c1.3,1.3,3.6,2.1,5.9,2c2.9-0.2,6.3-2.4,8.3-5.3c0.1-0.1,0.1-0.2,0.1-0.2
	c1.2-3.4,1-7.4-0.6-9.9c-1.3-2-3.3-3.4-5.1-3.6c0.7-1.3,1.5-2.7,2.3-4c2.6-0.4,4.9,0.4,6.5,2.1c1.7,1.8,2.7,4.5,3.2,8.6
	c0.1,0.9,0.2,1.9,0.3,2.9c0.1,1.2,0.2,2.4,0.4,3.6c0.2,1.2,0.4,2.3,0.8,3.3c0.3,0.7,0.6,1.2,0.8,1.6
	C64.5,164.6,63.9,164.6,63.2,164.8z M47.1,155.5c0.7-1.4,2.3-2,3.5-1.3c1.2,0.6,1.7,2.2,1,3.6c-0.7,1.4-2.3,2-3.5,1.3
	C46.8,158.4,46.4,156.8,47.1,155.5z M54.7,139.4c1.2-2.1,2.5-4.1,3.7-6.1c0.9,1.7,2.4,3.2,3.9,4c0.1,0.5,0,1.3-0.1,1.7
	c-0.1,0.2-0.2,0.4-0.3,0.6l-0.1,0.1c-0.1,0.2-0.3,0.4-0.4,0.6c-0.3,0.3-1,0.7-1.5,0.8C58.6,140,56.6,139.3,54.7,139.4z M60.4,130.2
	c0.8-1.3,1.7-2.6,2.5-3.9c1.1,1.5,3.2,2.7,5.6,2.9c2.9,0.2,6.6-1.4,9.1-4c0.1-0.1,0.1-0.2,0.1-0.2c1.7-3.2,2.1-7.2,1-9.8
	c-0.9-2.2-2.7-3.9-4.5-4.4c0.9-1.2,1.9-2.4,2.9-3.6c2.6,0,4.8,1.1,6.1,3.1c1.4,2,1.9,4.8,1.8,9c0,0.9-0.1,1.9-0.1,2.9
	c-0.1,1.2-0.2,2.4-0.2,3.6c0,1.2,0.1,2.4,0.3,3.4c0.2,0.7,0.4,1.3,0.6,1.7c-0.5-0.1-1.1-0.1-1.8,0c-1.1,0.1-2.2,0.4-3.4,0.8
	c-1.1,0.4-2.3,0.8-3.4,1.3c-0.9,0.4-1.8,0.7-2.7,1c-4,1.4-6.8,1.7-9.1,1.1C62.9,134.4,61.2,132.7,60.4,130.2z M69.3,119.2
	c0.9-1.2,2.5-1.6,3.7-0.8c1.1,0.8,1.3,2.5,0.4,3.7c-0.9,1.2-2.5,1.6-3.7,0.8C68.6,122.1,68.4,120.4,69.3,119.2z M84.2,106.9
	c-1.2-1.2-3-2.2-4.9-2.5c1.5-1.8,3.1-3.6,4.6-5.4c0.6,1.8,1.8,3.5,3.2,4.6c0,0.5-0.2,1.3-0.4,1.6c-0.1,0.2-0.3,0.4-0.4,0.6l-0.1,0.1
	c-0.2,0.2-0.3,0.3-0.5,0.5C85.5,106.6,84.8,106.9,84.2,106.9z M100.5,90.3c-1.1,1.1-2.8,1.2-3.7,0.2c-1-1-0.9-2.6,0.2-3.7
	c1.1-1.1,2.8-1.2,3.7-0.2C101.6,87.6,101.5,89.2,100.5,90.3z M188.6,31.1c-0.2,0.5-0.7,1.1-1.1,1.3c-0.2,0.1-0.4,0.2-0.6,0.3l-0.1,0
	c-0.2,0.1-0.4,0.2-0.7,0.2c-0.4,0.1-1.2,0-1.7-0.2c-0.5-1.7-1.7-3.4-3.4-4.5c0.6-0.3,1.2-0.5,1.8-0.8c1.6-0.7,3.3-1.4,5-2
	C187.4,27.4,187.8,29.5,188.6,31.1z M288.6,7.3c1.5,0,2.8,1.1,2.8,2.5c0,1.4-1.2,2.5-2.8,2.5c-1.5,0-2.8-1.1-2.8-2.5
	C285.8,8.4,287.1,7.3,288.6,7.3z M389.5,25.5c1.6,0.6,3.2,1.3,4.8,2c0.6,0.3,1.2,0.5,1.9,0.8c-1.6,1.1-2.8,2.8-3.3,4.5
	c-0.5,0.2-1.3,0.3-1.7,0.2c-0.2,0-0.5-0.1-0.7-0.2l-0.1,0c-0.2-0.1-0.4-0.2-0.6-0.3c-0.3-0.2-0.9-0.8-1.1-1.3
	C389.4,29.5,389.8,27.5,389.5,25.5z M476.6,86.6c1-1,2.6-0.9,3.7,0.2s1.2,2.8,0.2,3.7s-2.6,0.9-3.7-0.2
	C475.7,89.2,475.6,87.6,476.6,86.6z M534,337.7c0.6,0.5,1.8,1.9,2,3.3c0.2,1.4,0.6,3.3,2.5,4.7c0,0-0.5,0.3-1.2,0.9
	c-3,2.5-5.8,4.8-8.9,6.7c-1.3,0.8-2,0.7-2.4,0.6c-0.6-0.2-0.8-0.7-1.5-0.9c3.5-10.9,6.2-22.2,8.2-33.7c0.6,0.1,1.1-0.2,1.7-0.1
	c0.4,0.1,1.1,0.3,1.9,1.6c2,3.2,3.4,6.8,5.1,10.5c0.1,0.2,0.2,0.5,0.5,0.9c-2.3,0.3-3.5,1.8-4.4,3s-2.5,1.9-3.3,2
	c-0.2,0-0.3,0.1-0.4,0.1C533.8,337.5,533.9,337.6,534,337.7z M535.9,182.1c1.8-1.4,4.2-1.8,6.6-1.1c0.6,1.5,1.1,2.9,1.6,4.4
	c-1.8,0-3.9,1.1-5.4,2.8c-1.9,2.2-2.8,6.1-2.1,9.7c0,0,0,0.1,0.1,0.2c1.6,3.3,4.5,5.9,7.4,6.6c2.2,0.5,4.6,0.1,6-0.9
	c0.4,1.5,0.8,3,1.2,4.5c-1.5,2-3.7,3-5.9,2.9c-2.5-0.1-5-1.3-8.4-3.8c-0.7-0.6-1.5-1.2-2.2-1.8c-0.9-0.8-1.9-1.6-2.8-2.3
	c-1-0.7-2-1.3-3-1.8c-0.6-0.3-1.2-0.4-1.7-0.5c0.3-0.3,0.7-0.8,1.1-1.4c0.6-0.9,1-2,1.4-3.2c0.4-1.1,0.7-2.3,1-3.5
	c0.2-0.9,0.5-1.9,0.7-2.8C532.6,186.1,534,183.6,535.9,182.1z M534.2,174.4c1.6-0.5,3.2-1.7,4.4-3.2c0.1,0.3,0.3,0.7,0.4,1
	c0.8,1.8,1.5,3.6,2.2,5.4c-1.8-0.3-3.8,0.1-5.3,0.9c-0.5-0.2-1.1-0.7-1.3-1.1c-0.1-0.2-0.2-0.4-0.3-0.6l0-0.1
	c-0.1-0.2-0.2-0.4-0.2-0.7C533.9,175.7,534,174.9,534.2,174.4z M546.4,194.8c0.5,1.5-0.2,3-1.5,3.4c-1.3,0.4-2.8-0.4-3.2-1.9
	c-0.5-1.5,0.2-3,1.5-3.4C544.4,192.5,545.9,193.3,546.4,194.8z M549.7,228.4c-2.2,1.9-3.7,5.6-3.6,9.2c0,0,0,0.1,0,0.2
	c1,3.5,3.6,6.6,6.3,7.7c2.1,0.9,4.4,0.8,6,0.1c0.2,1.6,0.4,3.1,0.5,4.7c-1.8,1.7-4,2.3-6.3,1.9c-2.4-0.5-4.8-2.1-7.7-5.1
	c-0.6-0.7-1.3-1.4-1.9-2.1c-0.8-0.9-1.6-1.8-2.4-2.7c-0.8-0.9-1.7-1.6-2.6-2.2c-0.6-0.4-1.2-0.6-1.6-0.8c0.4-0.3,0.8-0.7,1.3-1.2
	c0.7-0.8,1.3-1.8,1.8-2.9c0.5-1.1,1-2.2,1.5-3.3c0.4-0.9,0.8-1.8,1.2-2.6c1.8-3.8,3.6-6,5.7-7.2c2-1.1,4.4-1.2,6.6-0.1
	c0.3,1.5,0.6,3.1,0.9,4.6C553.7,226.3,551.5,227,549.7,228.4z M556.2,236.2c0.2,1.5-0.7,2.9-2,3.1c-1.4,0.2-2.7-0.8-2.9-2.4
	c-0.2-1.5,0.7-2.9,2-3.1C554.7,233.6,556,234.6,556.2,236.2z M554.3,269.9c-2.5,1.5-4.5,4.9-5,8.5c0,0,0,0.1,0,0.2
	c0.5,3.6,2.5,7,5,8.5c1.9,1.2,4.2,1.5,5.9,1c-0.1,1.6-0.1,3.2-0.2,4.7c-2,1.3-4.3,1.6-6.4,0.8c-2.3-0.9-4.4-2.8-6.8-6.2
	c-0.5-0.8-1-1.6-1.6-2.4c-0.6-1-1.3-2.1-2-3c-0.7-1-1.4-1.9-2.3-2.6c-0.5-0.5-1-0.8-1.5-1c0.4-0.2,0.9-0.6,1.5-1
	c0.8-0.7,1.6-1.6,2.3-2.6c0.7-1,1.4-2,2-3c0.5-0.8,1-1.6,1.6-2.4c2.4-3.4,4.5-5.4,6.8-6.2c2.1-0.8,4.4-0.5,6.4,0.9
	c0.1,1.6,0.1,3.2,0.2,4.7C558.5,268.4,556.2,268.8,554.3,269.9z M559.5,278.6c0,1.5-1.1,2.8-2.5,2.8c-1.4,0-2.5-1.2-2.5-2.8
	c0-1.5,1.1-2.8,2.5-2.8C558.4,275.8,559.5,277,559.5,278.6z M559.7,296.5c-0.2,2.3-0.3,4.5-0.5,6.8c-1.5-1-3.3-1.5-4.9-1.5
	c-0.4-0.4-0.6-1.1-0.7-1.5c0-0.2,0-0.5,0-0.7l0-0.1c0-0.2,0.1-0.5,0.1-0.7c0.1-0.4,0.5-1.1,0.9-1.4
	C556.1,297.5,558.1,297.3,559.7,296.5z M540.3,298.6c0.7,0.4,2,1.6,2.5,2.9c0.4,1.4,1.2,3.2,3.2,4.2c0,0-0.5,0.4-1.1,1.1
	c-2.6,2.9-5,5.7-7.8,8c-1.2,1-1.9,1-2.3,0.9c-0.6-0.1-0.9-0.5-1.6-0.6c1.7-11.3,2.6-22.8,2.7-34.6c0.7,0.1,1.1-0.4,1.7-0.3
	c0.4,0,1.1,0.1,2.1,1.3c2.5,2.9,4.5,6.2,6.7,9.6c0.1,0.2,0.3,0.4,0.6,0.8c-2.2,0.7-3.2,2.4-3.9,3.7c-0.7,1.3-2.1,2.3-2.9,2.5
	c-0.2,0.1-0.3,0.1-0.4,0.2C540,298.4,540.1,298.5,540.3,298.6z M540.4,258.9c0.8,0.2,2.2,1.2,2.9,2.5c0.7,1.3,1.6,3,3.9,3.7
	c0,0-0.4,0.5-0.9,1.2c-2.1,3.3-4.1,6.4-6.4,9.2c-1,1.2-1.7,1.3-2.1,1.3c-0.6,0-1-0.4-1.7-0.3c0-1.6,0-3.3-0.1-4.9
	c-0.3-10.1-1.1-20-2.6-29.7c0.7-0.1,1-0.5,1.6-0.6c0.4-0.1,1.1-0.1,2.3,0.9c2.9,2.5,5.4,5.4,8.1,8.4c0.2,0.2,0.4,0.4,0.7,0.7
	c-2.1,1-2.8,2.8-3.2,4.2c-0.4,1.4-1.8,2.6-2.5,2.9c-0.2,0.1-0.3,0.2-0.4,0.2C540.1,258.8,540.2,258.9,540.4,258.9z M554.6,259.9
	c-0.4-0.3-0.8-1-0.9-1.4c-0.1-0.2-0.1-0.5-0.1-0.7l0-0.1c0-0.2,0-0.5,0-0.7c0-0.4,0.3-1.2,0.7-1.6c1.6,0,3.5-0.6,5.1-1.6
	c0.2,2.3,0.4,4.5,0.5,6.8C558.2,259.9,556.3,259.6,554.6,259.9z M548.5,218.5c-0.5-0.3-1-0.9-1.1-1.2c-0.1-0.2-0.2-0.4-0.2-0.7
	l0-0.1c-0.1-0.2-0.1-0.5-0.1-0.7c0-0.4,0.1-1.2,0.4-1.6c1.7-0.3,3.5-1.2,4.8-2.5c0.6,2.2,1.1,4.5,1.6,6.8
	C552,217.9,550.1,217.9,548.5,218.5z M528.5,203.7c3.2,2,6.1,4.5,9.3,7.1c0.2,0.1,0.4,0.3,0.8,0.6c-1.9,1.4-2.3,3.2-2.5,4.7
	c-0.2,1.4-1.3,2.8-2,3.3c-0.2,0.1-0.3,0.2-0.3,0.3c0.1,0,0.3,0.1,0.4,0.1c0.8,0.1,2.4,0.9,3.3,2c0.8,1.2,2.1,2.7,4.4,3
	c0,0-0.3,0.5-0.7,1.3c-1.6,3.6-3,7-4.9,10c-0.8,1.3-1.5,1.6-1.9,1.6c-0.6,0.1-1.1-0.2-1.7-0.1c-1.9-11.5-4.6-22.8-8.1-33.7
	c0.6-0.2,0.9-0.7,1.5-0.8C526.5,203,527.2,202.9,528.5,203.7z M540.9,325.3c-0.5-1.1-1-2.2-1.5-3.3c-0.5-1.1-1.1-2.1-1.8-2.9
	c-0.4-0.5-0.9-1-1.3-1.2c0.4-0.2,1-0.4,1.6-0.8c0.9-0.6,1.8-1.3,2.6-2.2c0.8-0.8,1.7-1.8,2.4-2.7c0.6-0.7,1.3-1.5,1.9-2.1
	c2.9-3,5.3-4.6,7.7-5.1c2.2-0.4,4.4,0.2,6.2,1.9c-0.2,1.6-0.3,3.1-0.5,4.7c-1.6-0.7-3.9-0.7-6,0.1c-2.7,1.1-5.2,4.2-6.3,7.6
	c0,0,0,0.1,0,0.2c-0.1,3.6,1.4,7.3,3.6,9.2c1.7,1.4,3.9,2.1,5.7,2c-0.3,1.6-0.6,3.1-1,4.6c-2.2,1-4.5,0.9-6.5-0.2
	c-2.1-1.2-3.9-3.4-5.7-7.2C541.7,327.1,541.3,326.2,540.9,325.3z M556.1,321c-0.2,1.5-1.5,2.6-2.9,2.4c-1.4-0.2-2.3-1.6-2-3.1
	c0.2-1.5,1.5-2.6,2.9-2.4C555.5,318.1,556.4,319.5,556.1,321z M546.9,340.8l0-0.1c0.1-0.2,0.1-0.5,0.2-0.7c0.2-0.4,0.7-1,1.1-1.3
	c1.6,0.5,3.5,0.5,5.3,0c-0.5,2.2-1,4.4-1.6,6.6c-1.3-1.2-3.1-2.1-4.7-2.3c-0.3-0.4-0.5-1.2-0.5-1.6
	C546.8,341.2,546.9,341,546.9,340.8z M529.1,159.1c-1.2,0.6-2.8,0-3.5-1.3c-0.7-1.4-0.3-3,1-3.6c1.2-0.6,2.8,0,3.5,1.3
	C530.8,156.8,530.4,158.4,529.1,159.1z M522.4,139.3c-1.9,0-3.8,0.7-5.1,1.7c-0.5-0.1-1.2-0.5-1.5-0.8c-0.2-0.2-0.3-0.4-0.4-0.6
	l-0.1-0.1c-0.1-0.2-0.2-0.4-0.3-0.6c-0.1-0.4-0.2-1.2-0.1-1.7c1.5-0.8,3-2.2,3.8-3.9C520,135.3,521.2,137.3,522.4,139.3z
	 M493.2,99.1c1.5,1.8,3.1,3.5,4.5,5.3c-1.8,0.3-3.6,1.3-4.8,2.5c-0.5,0-1.2-0.3-1.6-0.6c-0.2-0.1-0.4-0.3-0.5-0.5l-0.1-0.1
	c-0.2-0.2-0.3-0.4-0.4-0.6c-0.2-0.4-0.4-1.1-0.4-1.6C491.4,102.6,492.6,100.9,493.2,99.1z M492.4,122.2c-0.1-1-0.1-1.9-0.1-2.9
	c-0.1-4.2,0.5-7,1.8-9c1.3-1.9,3.4-3,5.9-3.1c1,1.2,1.9,2.4,2.9,3.7c-1.7,0.6-3.4,2.2-4.3,4.4c-1.1,2.7-0.7,6.7,1,9.8
	c0,0,0,0.1,0.1,0.2c2.5,2.6,6.1,4.2,9.1,4c2.3-0.2,4.4-1.3,5.5-2.8c0.9,1.3,1.7,2.6,2.6,3.9c-0.8,2.4-2.5,4.1-4.8,4.7
	c-2.4,0.7-5.2,0.3-9.1-1.1c-0.9-0.3-1.8-0.7-2.7-1c-1.1-0.5-2.3-0.9-3.4-1.3c-1.1-0.4-2.3-0.7-3.4-0.8c-0.7-0.1-1.3,0-1.8,0
	c0.2-0.4,0.4-1,0.6-1.7c0.2-1.1,0.3-2.2,0.3-3.4C492.6,124.6,492.5,123.4,492.4,122.2z M513.9,159.6c0.2-1.2,0.3-2.4,0.4-3.6
	c0.1-1,0.2-1.9,0.3-2.9c0.6-4.2,1.6-6.8,3.2-8.6c1.6-1.7,3.8-2.5,6.3-2.1c0.8,1.3,1.5,2.7,2.3,4.1c-1.8,0.3-3.7,1.7-5,3.6
	c-1.5,2.5-1.8,6.5-0.6,9.9c0,0,0,0.1,0.1,0.2c2.1,3,5.4,5.1,8.3,5.3c2.3,0.2,4.5-0.6,5.8-1.9c0.7,1.4,1.3,2.8,1.9,4.3
	c-1.2,2.2-3.1,3.6-5.4,3.8c-2.4,0.3-5.2-0.5-8.9-2.5c-0.8-0.4-1.6-0.9-2.5-1.4c-1-0.6-2.1-1.3-3.2-1.8c-1.1-0.5-2.1-1-3.2-1.3
	c-0.7-0.2-1.3-0.2-1.8-0.3c0.3-0.4,0.6-0.9,0.8-1.6C513.5,162,513.7,160.8,513.9,159.6z M513.9,167.1c3.5,1.4,6.8,3.5,10.3,5.5
	c0.2,0.1,0.5,0.2,0.9,0.4c-1.7,1.6-1.8,3.6-1.8,5c0,1.5-0.9,3-1.4,3.6c-0.1,0.1-0.2,0.2-0.3,0.4c0.1,0,0.3,0.1,0.5,0.1
	c0.8,0,2.5,0.5,3.5,1.5c1,1,2.5,2.3,4.8,2.3c0,0-0.2,0.6-0.5,1.4c-1,3.8-1.9,7.3-3.3,10.7c-0.6,1.4-1.2,1.8-1.6,1.9
	c-0.6,0.2-1.1-0.1-1.7,0.2c-3.7-11.1-8.1-21.7-13.3-32c0.6-0.3,0.8-0.8,1.4-1.1C511.8,166.7,512.5,166.5,513.9,167.1z M529.5,360.7
	c-0.4-1.1-0.8-2.2-1.4-3.2c-0.4-0.6-0.7-1.1-1.1-1.4c0.5-0.1,1.1-0.2,1.7-0.5c1-0.4,2-1,3-1.8c1-0.7,1.9-1.5,2.8-2.3
	c0.8-0.6,1.5-1.2,2.2-1.8c3.3-2.5,5.9-3.7,8.4-3.8c2.2-0.1,4.3,0.9,5.8,2.8c-0.1,0.3-0.1,0.5-0.2,0.8c-0.3,1.3-0.7,2.5-1.1,3.8
	c-1.5-1-3.7-1.4-5.9-0.9c-2.8,0.7-5.8,3.3-7.4,6.6c0,0,0,0.1-0.1,0.2c-0.7,3.6,0.2,7.5,2.1,9.7c1.5,1.7,3.5,2.7,5.3,2.8
	c-0.5,1.5-1.1,3-1.7,4.4c-2.3,0.6-4.6,0.2-6.4-1.2c-1.9-1.5-3.3-4-4.5-8c-0.3-0.9-0.5-1.8-0.7-2.8
	C530.2,363,529.9,361.9,529.5,360.7z M546.1,362.4c-0.5,1.5-1.9,2.3-3.2,1.9c-1.3-0.4-2-2-1.5-3.4c0.5-1.5,1.9-2.3,3.2-1.9
	C545.9,359.4,546.6,360.9,546.1,362.4z M533.7,381.1c0-0.2,0.1-0.5,0.2-0.7l0-0.1c0.1-0.2,0.2-0.4,0.3-0.6c0.2-0.3,0.8-0.9,1.3-1.1
	c1.5,0.7,3.4,1.1,5.2,0.9c-0.8,2.1-1.7,4.2-2.6,6.3c-1.1-1.4-2.7-2.5-4.2-3C533.7,382.3,533.7,381.5,533.7,381.1z M63.6,397.4
	c-0.2,1.2-0.3,2.4-0.4,3.6c-0.1,1-0.2,1.9-0.3,2.9c-0.6,4.2-1.5,6.8-3.2,8.6c-0.4,0.4-0.7,0.7-1.2,1h-5.5c-0.6-1-1.1-2-1.7-3
	c1.7-0.4,3.5-1.7,4.7-3.6c1.5-2.5,1.8-6.5,0.6-9.9c0-0.1-0.1-0.2-0.1-0.2c-2.1-3-5.4-5.1-8.3-5.3c-2.2-0.2-4.3,0.5-5.7,1.7
	c-0.7-1.4-1.3-2.9-2-4.3c1.2-2.1,3.1-3.4,5.3-3.6c2.4-0.3,5.2,0.5,8.9,2.5c0.8,0.4,1.6,0.9,2.5,1.4c1,0.6,2.1,1.2,3.2,1.8
	c1.1,0.5,2.1,1,3.2,1.3c0.7,0.2,1.3,0.2,1.8,0.2c-0.3,0.4-0.6,0.9-0.8,1.6C64,395.1,63.8,396.2,63.6,397.4z M72.7,413.5
	c0.1-1.2,0.5-2.3,0.9-2.8c0.1-0.2,0.2-0.3,0.2-0.4c-0.1,0-0.3,0-0.5,0c-0.8,0.1-2.6-0.1-3.7-0.9c0,0-1.3-1-2.7-1.4
	c-1.3-0.3-2.4-0.1-2.4-0.1c0.1-0.4,0.1-0.7,0.2-1c0.4-4.1,0.7-7.9,1.6-11.6c0.4-1.5,0.9-1.9,1.3-2.1c0.5-0.3,1.1-0.1,1.6-0.4
	c3.1,6,6.5,11.8,10.1,17.4h0c0.7,1.1,1.4,2.2,2.1,3.3H72.7z M69,164.2c-0.6-0.3-1.1-0.1-1.6-0.4c-0.4-0.2-1-0.6-1.3-2.1
	c-0.9-3.5-1.2-7.2-1.6-11.1c-0.1-0.9-0.2-1.5-0.2-1.5c2.3,0.4,3.9-0.7,5.1-1.5c1.2-0.9,2.9-1.1,3.7-0.9c0.2,0,0.3,0,0.5,0
	c0-0.1-0.1-0.2-0.2-0.4c-0.5-0.6-1.1-2.3-0.9-3.7c0.2-1.4,0.4-3.4-1-5.2c0.4-0.1,0.7-0.2,0.9-0.3c3.8-1.5,7.4-3,11.1-3.8
	c1.5-0.4,2.2,0,2.5,0.2c0.5,0.3,0.6,0.9,1.2,1.3C80.4,144,74.3,153.9,69,164.2z M89.6,131.2c-0.5-0.4-1.1-0.3-1.6-0.7
	c-0.3-0.2-0.8-0.8-1-2.3c-0.3-3.6,0-7.3,0.2-11.2c0-0.9,0-1.5,0-1.5c2.2,0.7,4,0,5.3-0.7c1.3-0.7,3.1-0.6,3.8-0.3
	c0.2,0.1,0.3,0.1,0.4,0.1c0-0.1-0.1-0.3-0.2-0.4c-0.4-0.7-0.7-2.4-0.3-3.8c0.5-1.4,0.9-3.3-0.1-5.3c0.4-0.1,0.7-0.1,1-0.1
	c4-0.9,7.7-1.8,11.5-2.1c1.5-0.1,2.1,0.3,2.4,0.6c0.4,0.4,0.4,1,1,1.5C104,113.1,96.5,121.9,89.6,131.2z M112.4,89.4
	c-0.2,0.9-0.4,1.9-0.6,2.8c-0.3,1.2-0.5,2.4-0.7,3.6c-0.2,1.2-0.3,2.3-0.2,3.4c0,0.7,0.2,1.3,0.3,1.8c-0.4-0.1-1.1-0.3-1.8-0.3
	c-1.1-0.1-2.2,0-3.4,0.2c-1.2,0.2-2.4,0.5-3.6,0.7c-1,0.2-1.9,0.4-2.8,0.6c-4.1,0.8-7,0.6-9.2-0.4c-2.1-1-3.6-3-4-5.5
	c1-1.1,2.1-2.3,3.1-3.4c0.8,1.7,2.7,3.1,5,3.7c2.8,0.7,6.7-0.3,9.6-2.5c0.1-0.1,0.1-0.1,0.1-0.1c2.2-2.9,3.2-6.7,2.5-9.6
	c-0.6-2.3-2.1-4.2-3.7-5c1.1-1.1,2.3-2.1,3.4-3.1c2.6,0.4,4.6,1.8,5.5,4C113,82.5,113.1,85.3,112.4,89.4z M115.1,101.9
	c-0.4-0.5-1.1-0.5-1.5-1c-0.3-0.3-0.7-0.9-0.6-2.4c0.3-3.6,1.1-7.2,1.9-11c0.2-0.9,0.2-1.5,0.2-1.5c2.1,1.1,3.9,0.6,5.3,0.1
	c1.4-0.5,3.1-0.1,3.8,0.3c0.2,0.1,0.3,0.1,0.4,0.2c0-0.1,0-0.3-0.1-0.4c-0.3-0.8-0.3-2.5,0.3-3.8c0.7-1.3,1.4-3.1,0.7-5.3
	c0.4,0,0.7,0,1,0c4.1-0.2,7.9-0.5,11.7-0.2c1.5,0.1,2.1,0.6,2.3,1c0.4,0.5,0.3,1.1,0.7,1.6C132.1,86.3,123.3,93.8,115.1,101.9z
	 M141.8,70.2c-0.4,1.1-0.7,2.3-0.8,3.4c-0.1,0.7,0,1.3,0,1.8c-0.4-0.2-1-0.4-1.7-0.6c-1.1-0.2-2.2-0.3-3.4-0.3
	c-1.2,0-2.4,0.1-3.6,0.2c-1,0.1-1.9,0.1-2.9,0.2c-4.2,0.1-7-0.5-9-1.8c-2-1.3-3.1-3.5-3.1-6.1c1.2-1,2.4-1.9,3.6-2.9
	c0.5,1.8,2.2,3.6,4.4,4.5c2.7,1.1,6.7,0.7,9.8-1c0.1,0,0.2-0.1,0.2-0.1c2.6-2.5,4.2-6.2,4-9.1c-0.2-2.4-1.4-4.6-3-5.6
	c1.3-0.9,2.5-1.7,3.8-2.5c2.5,0.8,4.3,2.5,4.9,4.8c0.7,2.4,0.3,5.2-1,9.1c-0.3,0.9-0.7,1.8-1,2.7C142.6,68,142.2,69.1,141.8,70.2z
	 M144.8,76.9c-0.4-0.6-1-0.7-1.3-1.2c-0.3-0.3-0.6-1-0.2-2.5c0.8-3.5,2.2-6.9,3.6-10.6c0.3-0.8,0.5-1.4,0.5-1.4
	c1.9,1.4,3.8,1.2,5.2,1c1.4-0.2,3.1,0.4,3.7,0.9c0.2,0.1,0.3,0.2,0.4,0.2c0-0.1,0-0.3,0-0.5c-0.1-0.8,0.1-2.6,0.9-3.7
	c0.9-1.2,1.9-2.8,1.5-5.1c0.4,0.1,0.7,0.1,1,0.2c4.1,0.4,7.9,0.7,11.6,1.6c1.5,0.4,1.9,0.9,2.1,1.3c0.3,0.5,0.1,1.1,0.5,1.7
	C164.1,64.1,154.2,70.2,144.8,76.9z M174.9,53c-0.2,0.7-0.2,1.3-0.3,1.8c-0.4-0.3-0.9-0.6-1.6-0.8c-1-0.4-2.1-0.7-3.3-0.8
	c-1.2-0.2-2.4-0.3-3.6-0.4c-1-0.1-1.9-0.2-2.9-0.3c-4.2-0.6-6.8-1.6-8.6-3.2c-1.8-1.6-2.5-4-2.1-6.6c1.3-0.8,2.6-1.5,4-2.3
	c0.2,1.9,1.6,3.9,3.7,5.2c2.5,1.5,6.5,1.8,9.9,0.6c0.1,0,0.2-0.1,0.2-0.1c3-2.1,5.1-5.4,5.3-8.3c0.2-2.4-0.7-4.8-2.1-6
	c1.4-0.6,2.8-1.3,4.2-1.9c2.4,1.2,3.9,3.2,4.2,5.6c0.3,2.4-0.5,5.2-2.5,8.9c-0.4,0.8-0.9,1.6-1.4,2.5c-0.6,1-1.2,2.1-1.8,3.2
	C175.6,50.9,175.2,51.9,174.9,53z M178.1,56.9c-0.3-0.6-0.8-0.8-1.1-1.3c-0.2-0.4-0.4-1.1,0.2-2.5c1.4-3.4,3.3-6.5,5.2-9.9
	c0.4-0.8,0.7-1.3,0.7-1.3c1.6,1.7,3.6,1.8,5,1.8c1.5,0,3,0.9,3.6,1.4c0.1,0.1,0.3,0.2,0.4,0.3c0-0.1,0-0.3,0-0.4
	c0-0.8,0.5-2.5,1.5-3.5c1-1,2.3-2.5,2.3-4.8c0.4,0.2,0.7,0.3,0.9,0.3c4,1.1,7.7,1.9,11.2,3.4c1.4,0.6,1.8,1.2,1.9,1.6
	c0.2,0.5,0,1.1,0.2,1.7C199.1,47.2,188.4,51.7,178.1,56.9z M211,39.7c-0.3-0.3-0.8-0.7-1.4-1.1c-0.9-0.6-2-1-3.2-1.4
	c-1.1-0.4-2.3-0.7-3.5-1c-0.9-0.2-1.9-0.5-2.8-0.7c-4-1.2-6.5-2.6-8-4.5c-1.5-1.9-1.9-4.4-1-6.9c1.4-0.5,2.8-1.1,4.3-1.6
	c-0.1,1.9,1,4.1,2.8,5.7c2.2,1.9,6.1,2.8,9.7,2.1c0.1,0,0.2-0.1,0.2-0.1c3.3-1.6,5.9-4.5,6.6-7.4c0.6-2.4,0.1-4.8-1.1-6.3
	c1.5-0.4,2.9-0.8,4.4-1.2c2.2,1.5,3.4,3.8,3.3,6.2c-0.1,2.5-1.3,5-3.8,8.4c-0.6,0.7-1.2,1.5-1.8,2.2c-0.8,0.9-1.6,1.9-2.3,2.8
	c-0.7,1-1.3,2-1.8,3C211.3,38.6,211.1,39.2,211,39.7z M247.8,34.2c-11.5,1.9-22.8,4.6-33.7,8.1c-0.2-0.6-0.7-0.9-0.8-1.5
	c-0.1-0.4-0.2-1.1,0.6-2.4c1.9-3.1,4.3-5.9,6.7-8.9c0.6-0.7,0.9-1.2,0.9-1.2c1.4,1.9,3.2,2.3,4.7,2.5c1.4,0.2,2.8,1.3,3.3,2
	c0.1,0.2,0.2,0.3,0.3,0.3c0-0.1,0.1-0.2,0.1-0.4c0.1-0.8,0.8-2.4,2-3.3c1.2-0.9,2.7-2.1,3-4.4c0.4,0.2,0.7,0.4,0.9,0.5
	c3.8,1.7,7.3,3.1,10.5,5.1c1.3,0.8,1.6,1.5,1.6,1.9C248,33,247.7,33.5,247.8,34.2z M249.3,30.5c-0.3-0.4-0.7-0.8-1.2-1.3
	c-0.8-0.7-1.8-1.3-2.9-1.8c-1.1-0.5-2.2-1-3.3-1.5c-0.9-0.4-1.8-0.8-2.6-1.2c-3.8-1.8-6-3.6-7.2-5.7c-1.2-2.1-1.2-4.6,0.1-7
	c1.5-0.3,3-0.6,4.5-0.9c-0.4,1.8,0.3,4.2,1.9,6.1c1.9,2.2,5.6,3.7,9.2,3.6c0.1,0,0.2,0,0.2,0c3.5-1,6.5-3.6,7.7-6.3
	c0.9-2.3,0.8-4.7-0.1-6.4c1.5-0.2,3-0.4,4.6-0.5c1.9,1.8,2.7,4.2,2.2,6.6c-0.5,2.4-2.1,4.8-5.1,7.7c-0.7,0.6-1.4,1.3-2.1,1.9
	c-0.9,0.8-1.8,1.6-2.7,2.4c-0.9,0.8-1.6,1.7-2.2,2.6C249.7,29.5,249.5,30,249.3,30.5z M286.6,30.8c-11.7,0.1-23.3,1-34.6,2.7
	c-0.1-0.7-0.5-1-0.6-1.6c-0.1-0.4-0.1-1.1,0.9-2.3c2.3-2.8,5.1-5.2,8-7.8c0.7-0.6,1.1-1.1,1.1-1.1c1,2.1,2.8,2.8,4.2,3.2
	c1.4,0.4,2.6,1.8,2.9,2.5c0.1,0.2,0.2,0.3,0.3,0.4c0.1-0.1,0.1-0.2,0.2-0.4c0.2-0.8,1.2-2.2,2.5-2.9c1.3-0.7,3-1.6,3.7-3.9
	c0.3,0.3,0.6,0.5,0.8,0.6c3.5,2.2,6.7,4.2,9.6,6.7c1.2,1,1.3,1.7,1.3,2.1C286.9,29.7,286.5,30.2,286.6,30.8z M289.6,25.9
	c-0.5,0.5-0.8,1-1,1.5c-0.2-0.4-0.6-0.9-1-1.5c-0.7-0.8-1.6-1.6-2.6-2.3c-1-0.7-2-1.4-3-2c-0.8-0.5-1.6-1-2.4-1.6
	c-3.4-2.4-5.4-4.5-6.2-6.8c-0.8-2.2-0.4-4.7,1.1-6.8c1.5-0.1,3.1-0.1,4.6-0.2c-0.6,1.8-0.3,4.2,0.9,6.3c1.5,2.5,4.9,4.5,8.5,5
	c0.1,0,0.2,0,0.2,0c3.6-0.5,7-2.5,8.5-5c1.2-2.1,1.5-4.5,0.9-6.2c1.5,0.1,3.1,0.1,4.6,0.2c1.6,2.1,1.9,4.6,1.1,6.8
	c-0.9,2.3-2.8,4.4-6.2,6.8c-0.8,0.5-1.6,1-2.4,1.6c-1,0.6-2.1,1.3-3,2C291.2,24.3,290.4,25.1,289.6,25.9z M325.9,31.9
	c-0.1,0.6-0.5,0.9-0.6,1.6c-11.3-1.7-22.8-2.6-34.6-2.7c0.1-0.7-0.4-1.1-0.3-1.7c0-0.4,0.1-1.1,1.3-2.1c2.8-2.4,5.9-4.3,9.2-6.4
	c0.8-0.5,1.2-0.9,1.2-0.9c0.7,2.2,2.4,3.2,3.7,3.9s2.3,2.1,2.5,2.9c0.1,0.2,0.1,0.3,0.2,0.4c0.1-0.1,0.2-0.2,0.2-0.4
	c0.4-0.7,1.6-2,2.9-2.5c1.4-0.4,3.2-1.2,4.2-3.2c0.3,0.3,0.5,0.5,0.7,0.7c3.1,2.7,6,5.2,8.4,8.1C326,30.8,326,31.5,325.9,31.9z
	 M327.9,30.5c-0.2-0.4-0.4-1-0.8-1.6c-0.6-0.9-1.3-1.8-2.2-2.6c-0.8-0.8-1.8-1.6-2.7-2.4c-0.7-0.6-1.5-1.3-2.1-1.9
	c-3-2.9-4.6-5.3-5.1-7.7c-0.5-2.3,0.3-4.7,2.2-6.5c1.5,0.2,3,0.3,4.6,0.5c-0.9,1.6-1,4.1-0.1,6.3c1.1,2.7,4.2,5.2,7.7,6.3
	c0,0,0.1,0,0.2,0c3.6,0.1,7.3-1.4,9.2-3.6c1.6-1.9,2.2-4.2,1.9-6.1c1.5,0.3,3,0.6,4.5,0.9c1.2,2.3,1.2,4.8,0.1,6.9
	c-1.2,2.1-3.4,3.9-7.2,5.7c-0.8,0.4-1.7,0.8-2.6,1.2c-1.1,0.5-2.2,1-3.3,1.5c-1.1,0.5-2.1,1.1-2.9,1.8
	C328.6,29.6,328.2,30.1,327.9,30.5z M364,40.8c-0.2,0.6-0.7,0.8-0.8,1.5c-10.9-3.5-22.2-6.2-33.7-8.1c0.1-0.6-0.2-1.1-0.1-1.7
	c0.1-0.4,0.3-1.1,1.6-1.9c3.2-2,6.8-3.4,10.5-5.1c0.2-0.1,0.5-0.2,0.9-0.5c0.3,2.3,1.8,3.5,3,4.4c1.2,0.9,1.9,2.5,2,3.3
	c0,0.2,0.1,0.3,0.1,0.4c0.1-0.1,0.2-0.2,0.3-0.3c0.5-0.6,1.8-1.8,3.3-2c1.4-0.2,3.3-0.7,4.7-2.5c0,0,0.3,0.5,0.9,1.2
	c2.5,3,4.8,5.8,6.7,8.9C364.2,39.7,364.1,40.4,364,40.8z M365.7,38c-0.4-1-1.1-2-1.8-3c-0.7-1-1.5-1.9-2.3-2.8
	c-0.6-0.8-1.2-1.5-1.8-2.2c-2.5-3.3-3.7-5.9-3.8-8.4c-0.1-2.4,1-4.6,3.2-6.1c1.5,0.4,2.9,0.8,4.4,1.2c-1.1,1.5-1.6,3.9-1.1,6.3
	c0.7,2.8,3.3,5.8,6.6,7.4c0,0,0.1,0,0.2,0.1c3.6,0.6,7.5-0.2,9.7-2.1c1.8-1.6,2.9-3.8,2.8-5.7c1.4,0.5,2.9,1.1,4.3,1.6
	c0.8,2.5,0.4,4.9-1,6.8c-1.5,1.9-4,3.3-8,4.5c-0.9,0.3-1.8,0.5-2.8,0.7c-1.2,0.3-2.4,0.6-3.5,1c-1.1,0.4-2.2,0.8-3.2,1.4
	c-0.6,0.4-1.1,0.7-1.4,1.1C366.1,39.2,366,38.6,365.7,38z M400.2,55.5c-0.3,0.5-0.8,0.7-1.1,1.4c-10.3-5.2-21-9.6-32-13.3
	c0.2-0.6,0-1.1,0.2-1.7c0.1-0.4,0.5-1,1.9-1.6c3.5-1.5,7.2-2.3,11.2-3.4c0.2-0.1,0.5-0.2,0.9-0.3c0,2.3,1.3,3.8,2.3,4.8
	c1,1,1.5,2.7,1.5,3.5c0,0.2,0,0.3,0,0.4c0.1-0.1,0.2-0.1,0.4-0.3c0.6-0.6,2.1-1.4,3.6-1.4c1.5,0,3.4-0.1,5-1.8c0,0,0.2,0.6,0.7,1.3
	c2,3.4,3.9,6.5,5.2,9.9C400.6,54.5,400.4,55.2,400.2,55.5z M402.3,53c-0.3-1.1-0.7-2.1-1.3-3.2c-0.5-1.1-1.2-2.1-1.8-3.2
	c-0.5-0.8-1-1.7-1.4-2.5c-2-3.7-2.7-6.4-2.5-8.9c0.3-2.4,1.7-4.4,4.1-5.5c1.4,0.6,2.8,1.3,4.2,1.9c-1.3,1.3-2.2,3.6-2,6
	c0.2,2.9,2.4,6.3,5.3,8.3c0,0,0.1,0.1,0.2,0.1c3.4,1.2,7.4,1,9.9-0.6c2-1.3,3.4-3.3,3.7-5.1c1.3,0.8,2.7,1.5,4,2.3
	c0.4,2.6-0.4,4.9-2.1,6.5c-1.8,1.7-4.5,2.7-8.6,3.2c-0.9,0.1-1.9,0.2-2.9,0.3c-1.2,0.1-2.4,0.2-3.6,0.4c-1.2,0.2-2.3,0.4-3.3,0.8
	c-0.7,0.3-1.2,0.6-1.6,0.8C402.6,54.3,402.5,53.7,402.3,53z M433.7,75.7c-0.3,0.5-0.9,0.6-1.3,1.2l-0.4-0.2
	c-9.3-6.6-19-12.6-29.2-17.9l0,0c0.4-0.6,0.2-1.2,0.5-1.7c0.2-0.4,0.6-1,2.1-1.3c3.7-0.9,7.5-1.2,11.6-1.6c0.2,0,0.5-0.1,1-0.2
	c-0.4,2.3,0.7,3.9,1.5,5.1c0.9,1.2,1.1,2.9,0.9,3.7c0,0.2,0,0.3,0,0.5c0.1,0,0.2-0.1,0.4-0.2c0.6-0.5,2.3-1.1,3.7-0.9
	c1.4,0.2,3.4,0.4,5.2-1c0,0,0.2,0.6,0.5,1.4c1.4,3.6,2.8,7,3.6,10.6C434.3,74.8,433.9,75.4,433.7,75.7z M434.2,66.8
	c-0.4-0.9-0.7-1.8-1-2.7c-1.4-4-1.7-6.8-1-9.1c0.6-2.3,2.4-4,4.8-4.8c1.3,0.8,2.6,1.7,3.9,2.6c-1.5,1.1-2.7,3.2-2.9,5.6
	c-0.2,2.9,1.3,6.6,4,9.1c0,0,0.1,0.1,0.2,0.1c3.2,1.7,7.2,2.1,9.8,1c2.2-0.9,3.8-2.6,4.4-4.4c1.2,1,2.4,1.9,3.6,2.9
	c0,2.6-1.1,4.7-3.1,6c-2,1.4-4.8,1.9-9,1.8c-0.9,0-1.9-0.1-2.9-0.2c-1.2-0.1-2.4-0.2-3.6-0.2c-1.2,0-2.4,0.1-3.4,0.3
	c-0.7,0.2-1.3,0.4-1.7,0.6c0.1-0.5,0.1-1.1,0-1.8c-0.1-1.1-0.4-2.2-0.8-3.4C435.1,69.1,434.6,68,434.2,66.8z M463.6,101
	c-0.4,0.4-1,0.4-1.5,1l-0.5-0.4c-8-7.8-16.6-15.2-25.6-21.9l-0.3-0.3c0.5-0.5,0.4-1.1,0.7-1.6c0.2-0.3,0.8-0.8,2.3-1
	c3.8-0.3,7.6,0,11.7,0.2c0.2,0,0.5,0,1,0c-0.7,2.2,0,4,0.7,5.3c0.7,1.3,0.6,3.1,0.3,3.8c-0.1,0.2-0.1,0.3-0.1,0.4
	c0.1,0,0.3-0.1,0.4-0.2c0.7-0.4,2.4-0.7,3.8-0.3c1.4,0.5,3.3,0.9,5.3-0.1c0,0,0.1,0.6,0.2,1.5c0.8,3.8,1.7,7.4,1.9,11
	C464.3,100.1,463.9,100.7,463.6,101z M465.3,80.2c1-2.1,2.9-3.5,5.4-4c1.1,1,2.3,2.1,3.4,3.2c-1.6,0.8-3,2.7-3.6,5
	c-0.7,2.8,0.3,6.7,2.5,9.6c0,0,0.1,0.1,0.1,0.1c2.9,2.2,6.7,3.2,9.6,2.5c2.3-0.6,4.1-2,5-3.6c1.1,1.1,2.1,2.3,3.2,3.5
	c-0.4,2.5-1.9,4.4-4,5.4c-2.2,1-5.1,1.1-9.2,0.4c-0.9-0.2-1.9-0.4-2.8-0.6c-1.2-0.3-2.4-0.5-3.6-0.7c-1.2-0.2-2.3-0.3-3.4-0.2
	c-0.7,0-1.3,0.2-1.8,0.3c0.1-0.4,0.3-1.1,0.3-1.8c0.1-1.1,0-2.2-0.2-3.4c-0.2-1.2-0.5-2.4-0.7-3.6c-0.2-1-0.4-1.9-0.6-2.8
	C464.1,85.3,464.2,82.5,465.3,80.2z M489.2,130.5c-0.5,0.4-1.1,0.3-1.6,0.7l-0.2-0.2c-6.7-9.1-14.1-17.7-22-25.7l-0.3-0.4
	c0.5-0.4,0.5-1.1,1-1.5c0.3-0.3,0.9-0.7,2.4-0.6c3.8,0.3,7.5,1.2,11.5,2.1c0.2,0,0.5,0.1,1,0.1c-1.1,2.1-0.6,3.9-0.1,5.3
	s0.1,3.1-0.3,3.8c-0.1,0.2-0.1,0.3-0.2,0.4c0.1,0,0.3,0,0.4-0.1c0.8-0.3,2.5-0.3,3.8,0.3c1.3,0.7,3.1,1.4,5.3,0.7c0,0,0,0.6,0,1.5
	c0.2,3.9,0.5,7.6,0.2,11.2C490,129.8,489.5,130.3,489.2,130.5z M490,134.7c0.6-0.4,0.7-1,1.2-1.3c0.3-0.3,1-0.6,2.5-0.2
	c3.7,0.9,7.2,2.4,11.1,3.8c0.2,0.1,0.5,0.2,0.9,0.3c-1.4,1.9-1.2,3.8-1,5.2c0.2,1.4-0.4,3.1-0.9,3.7c-0.1,0.2-0.2,0.3-0.2,0.4
	c0.1,0,0.3,0,0.5,0c0.8-0.1,2.6,0.1,3.7,0.9c1.2,0.9,2.8,1.9,5.1,1.5c0,0-0.1,0.6-0.2,1.5c-0.4,3.9-0.7,7.6-1.6,11.1
	c-0.4,1.5-0.9,1.9-1.3,2.1c-0.5,0.3-1.1,0.1-1.7,0.5c-5.3-10.2-11.3-20-18-29.3L490,134.7z M507.6,409.4c-1.2,0.9-2.9,1-3.7,0.9
	c-0.2,0-0.3,0-0.5,0c0,0.1,0.1,0.2,0.2,0.4c0.4,0.5,0.8,1.6,0.9,2.8h-8.9c0.7-1.1,1.4-2.2,2.1-3.3h0c3.6-5.6,6.9-11.4,10-17.4
	l0.1-0.1c0.6,0.4,1.2,0.2,1.7,0.5c0.4,0.2,1,0.6,1.3,2.1c0.9,3.7,1.2,7.5,1.6,11.6c0,0.2,0.1,0.5,0.2,1
	C510.4,407.5,508.7,408.6,507.6,409.4z M517.5,412.5c-1.7-1.8-2.7-4.5-3.2-8.6c-0.1-0.9-0.2-1.9-0.3-2.9c-0.1-1.2-0.2-2.4-0.4-3.6
	c-0.2-1.2-0.4-2.3-0.8-3.3c-0.3-0.7-0.6-1.2-0.8-1.6c0.5,0,1.1-0.1,1.8-0.2c1.1-0.3,2.1-0.7,3.2-1.3c1.1-0.5,2.1-1.2,3.2-1.8
	c0.8-0.5,1.7-1,2.5-1.4c3.7-2,6.4-2.7,8.9-2.5c2.2,0.3,4.1,1.6,5.3,3.7c-0.6,1.4-1.3,2.9-2,4.3c-1.3-1.2-3.5-1.9-5.7-1.7
	c-2.9,0.2-6.3,2.3-8.3,5.3c0,0-0.1,0.1-0.1,0.2c-1.2,3.4-1,7.4,0.6,9.9c1.2,1.9,3,3.2,4.7,3.6c-0.6,1-1.1,2-1.7,3h-5.6
	C518.3,413.2,517.9,412.9,517.5,412.5z"/>
<g>
	<path class="st1" d="M97.3,409.7C70.5,370.9,56.3,325.6,56.3,278c0-127.3,103-231.1,230.1-232.3c0.7,0,1.5,0,2.2,0h0.1
		c0.7,0,1.5,0,2.2,0C418,47,521,150.7,521,278c0,47.6-14.1,92.9-40.9,131.7c0,0-1.7,2.4-2.7,3.8h6c0.8-1.1,1.5-2.1,2.2-3.2h0
		c26.6-39.5,41.6-87.4,40.2-138.5C522.3,143.3,416.7,41.1,288.9,41l-0.4,0C160.6,41.1,55,143.3,51.5,271.8
		c-1.4,51.1,13.6,99,40.2,138.5h0c0.7,1.1,1.4,2.1,2.2,3.2h6C98.9,412.1,97.3,409.7,97.3,409.7z"/>
</g>
<g>
	<path class="st1" d="M312.1,383.1c0.7-1.2,2.7-4.3,0.6-7.9c-2.4-3.3-5.3-3.7-7.4-3.7c-5.6-0.5-7.9-4.5-8.7-6
		c1-7.3,2.7-16.2,2.7-16.2c14.1,0,25.2-11.6,28.9-25.1c3.7-13.4,8.9-28.9,13.9-37.6c4.9-8.5,12.6-27,3.5-46.6
		c-1.1-2.2-2-4.5-2.6-6.7c-0.5-2-0.8-3.5-0.8-3.5l-0.6-3.5c0,0,0-2.4,0.4-1c0.5,0.2,4.6,1.5,5.3-1.8c0.7-3.1,2.8-4.3,2.8-4.3
		s-1.5-1.2-3.7-0.4c0,0,1.8-1.9,1.7-3c-0.1-1.1-3.3-2.2-3.3-2.2c0.4,0.1,3.2-10.3,3.2-10.3c8.5-32.2,1.1-66-22.6-93.6
		c-25.9-30.2-50.4-21.1-56.1-19.9c-30.7-14.6-58.5-13-88.3,13.7c-31.6,25.9-45.6,64.7-50.8,86.7c-7.7,37.1-4.3,53.7,1.6,80
		c0,0,6,24.7,3.6,39.5c-1.9,11.9-13.5,33.7-18.6,42.4c-4.4,7.4-11.8,18.7-10.7,36.4c0,0,1.2,19,19.9,24.8h179.4
		C305.9,394.7,311.4,384.2,312.1,383.1z"/>
</g>
<path class="st0" d="M346.1,239.6c-4.4-9.1-4.3-18.4-3.5-24.6c0.1-0.4,0.5-1.7,1-3.1c0.1-0.3,0.2-0.6,0.2-0.8c3-6.4,6-27.4,4.5-46.1
	c-2.6-28.6-30.2-66.3-48-72.1c-18.3-6.3-31.4-0.7-32-1.1c-0.5-0.4-4.4-2.1-4.4-2.1c-21.4-9.8-50.3-11.5-78.3,13.3
	c-26.8,23.7-31.2,36.8-38.4,52.1c-20.1,42.7-17.9,74.9-17.9,74.9s-0.6,12,7,45.5c0,0,5.2,21.4,3.1,35.4
	c-1.9,12.3-12.6,35.8-19.5,46.5c-6.7,10.4-10.1,21.2-9,31.3c1,9.1,6,18.4,15.1,25.1l114.4-0.1c-1.9-21.1-25.8-32.3-25.8-32.3
	c-30.4-14.4-34.5-32-34.5-32c-1.6-5-2-9.4-1.7-14.1c3.5,7.3,11,17.4,27.2,26.9c29.5,17.4,58.9,24.8,71.6,26.4
	c2.5,0.4,5.8,1.3,5.6,5.6l0,0l0,0c0,0,0,0.1,0,0.1c0,0,0,0,0,0c0.1,3.5-0.6,7.3-1.2,10.7c-0.5,3.1-1.1,6.5-1,8.5l2.3,0
	c-0.2-1.3,0.4-5.2,0.9-8.1c0.6-3.4,1.3-7.2,1.2-10.8c0.5-1,2.8-5.3,7.8-6.8c9.1-2.9,13.4-5.5,14-8.3c0.2-0.9,0.1-2.2-1.4-3.5
	c-0.5-0.4-1.2-0.4-1.6,0.1c-0.4,0.5-0.4,1.2,0.1,1.6c0.8,0.7,0.7,1.2,0.7,1.3c-0.2,0.7-1.4,2.5-8.7,5.3c-0.2-5.7,0.3-11.7,1-17.1
	c1,1.7,3.5,4.4,9.4,5.1c2.9,0.3,5.1,1.6,6.1,3.6c1,2,0.6,4.6-1.1,7.3c-3.5,5.5-7.1,21.5-6.9,30.3h1.4c-0.2-8.5,3.3-24.3,6.6-29.6
	c2-3.1,2.4-6.1,1.2-8.6c-1.1-2.4-3.7-4-7.1-4.3c-7.5-0.8-8.6-4.9-8.8-5.4c-0.1-0.4-0.2-0.8-0.3-1.3c1.1-7.3,2.6-13,3-14.4
	c13.2-0.5,24.4-10.5,28.6-25.7c4.4-16,9.6-30,13.8-37.4C346.9,279.5,355.7,260.2,346.1,239.6z M341.5,286.2
	c-4.3,7.5-9.5,21.6-13.9,37.7c-4.1,15-15.2,24.7-28.3,24.7c-25.6,0.8-32.5-1.7-43.4-6.4c-10.1-4.4-22.3-13.1-22.4-13.2c0,0,0,0,0,0
	c-15.2-9.6-23.5-19.8-27.8-26.6c-4.7-7.4-5.8-12.6-5.8-12.6c-0.1-0.4-0.4-0.6-0.8-0.5c-0.4,0.1-0.6,0.4-0.5,0.8
	c0,0.1,0.3,1.5,1.2,3.8c2.3,7.5,9.5,27.4,24.5,43.1c15.4,16.1,30.8,23.4,49.6,26.2c12.9,1.9,18.8,1,21.5-0.3
	c-1.1,6.6-2,14.7-1.6,22.4c-0.5,0.2-0.9,0.3-1.5,0.5c-3.7,1.1-6.2,3.5-7.7,5.4c-1-2.6-3.4-4.2-7.1-4.7c-11.7-1.5-41.5-8.9-70.7-26.1
	c-18.7-11-25.4-22.8-27.7-29.7c0.3-1.6,0.6-3.2,0.9-4.9c2.8-13.2-1.3-25.4-7.2-37.6c1.9,0.7,3.1,0.8,3.1,0.8c0.3,0.1,5.8,1.6,9-4.6
	c2.8-5.4-0.8-9.5-2.2-10.1c0,0,1.5,2.7,0.9,5.5c-1.5,6.7-8.9,6.6-12,0.9c-1.5-2.9-2.5-4.9-5.3-9.4c-3.1-5.2-6.9-9.7-6.9-9.7
	s-4.1-5.3-6.3-12.4c-4.2-12.7-0.6-21,0.9-23.6c0.5,0.4,1.3,0.8,2.1,1.3c-1.3,2.6-3.3,9.2,1,20.9c3.5,9.6,6.6,13.6,8,15l0.8-1.1
	c0,0-2.4-4.4-6.6-14c-3.6-9.7-1.5-16.6-0.3-19.3c1.5,0.7,3.3,1.4,5.2,2c-0.1,0.8,0.1,2.6,2.8,2.8c1.7,0.1,2.4-0.7,2.6-1.5
	c0.2,0,0.4,0.1,0.6,0.1c1.3,2.1,2.2,3.9,2.6,5.6c-0.8-0.9-2.1-1.7-4.3-1.4c-3.6,0.5-7.6,3.6-7.4,6.5c0.2,2.8,1.5,2.2,1.5,2.2
	c0.9-0.4,0.3-0.9,0.5-1.9c0.2-1,0.9-2.1,2.8-3.6c1.9-1.4,3.7-1.4,3.7-1.4c1.3,1.2,2,3.4,2.3,4.6c-0.6,1-1.6,2-2.8,3.1
	c-4.7,4.4-1,9.5,0.8,10.4c-3.1-7.5,0.6-9.1,1.6-10c1-0.8,3.3-2.1,3.6-6.6c0.2-3.5-1.1-6.1-1.9-7.3c4.7,0.2,10-0.5,15.5-3
	c19.5-8.8,25.1-29.3,28-38.3c2.9-9,8.2-30.6,21.5-39.2c13.3-8.5,34.8-7.9,34.8-7.9s10.7,1,12.7-4.6c-0.7-1.2-0.2-1.6,0.2-3.2
	c0.4-1.6,0.2-2.2-0.5-2.9c0.7-1.1,0-2.2-1-3c-1-0.8-0.5-1.7,0.1-2.1c-1.1-0.6-1.3-1.3-1.3-3.4c0.1-2.1-1.1-2.7-1.8-2.8
	c0.3-1.1,0.1-2.1-1.2-3.1c-1.3-1-1.1-2.4-0.7-3.1c-2.6-1.7-1.1-2.9-1.1-2.9c-3.6-1.6-2.6-3.8-2.6-3.8s-1.1-0.7-1.1-1.2
	c0.7-0.4,1.4-1.7,1.4-1.7l0.7,0.3c-0.9,1.6,0.6,3.3,2.1,3.3c1.4,0,2.5,0.4,2.2,1c-2.8-0.6-2.1,1.7-2.1,1.7s0.1,1.2,2.4,1.5
	c2.6,0.4,2.4,3.6,2.4,3.6c-1.4,0.4-0.9,2.1,0.2,2.6c1.1,0.5,1.8,2.3,0.8,2.8c0.7,0.3,1,0.8,1.3,2c0.3,1.2,1.6,1.5,2.3,1.5
	c-1.3,0.7-1.1,1.9-0.8,2.2c0.3,0.3,1,1.6,0,2.2c0.8,0.1,2.3,1.1,2.3,1.9c-0.8,0-2,0.3-2.3,0.8c1.2,0.6,1.9,3,1.9,3
	c-1.6,1-1.4,2.3-1,2.3c3,0.4,4.3,4.3,4.3,4.3c17.2,2.2,34.5,7.1,40.7,18.1c6.2,11,9.6,34.3,7.7,42.7c2.1,5.7,0.5,9.5,0.5,9.5
	c0,0,0,0,0,0c-0.2,0.7-0.4,1.4-0.5,1.6c0,0,0,0.1,0,0.1c-0.9,6.4-1,15.9,3.6,25.4C354.2,260.2,345.6,279,341.5,286.2z"/>
<ellipse transform="matrix(0.9908 -0.1354 0.1354 0.9908 -35.8449 26.3851)" class="st0" cx="176.1" cy="276.8" rx="3" ry="3.5"/>
<path class="st1" d="M136.8,371.8c0.3-14.2,7.3-18,11-20.4c5.6-3.7,5-9,5-10.5c1.6,5,0.8,9.7-5.5,13.3c-5.1,2.9-4.8,8.2-4.5,10.3
	c0.2-1.2,0.5-4.4,5.7-6.5c5-2,4.7-4.8,4.7-4.8c1.6,3.6-2.5,5.5-5.7,8.3c-3.2,2.7-2.8,6.8-2.2,9.2c-0.2-5.3,3.6-6.5,4.2-6.6
	c2.4-0.7,4.7-1.5,4.7-3c0.9,3.4-3.6,3.4-5.4,6.4c-1.7,2.8-2,5.3-1.1,9.1c-0.1-4.9,3.2-6.1,3.2-6.1c1-0.4,4-1.7,4-3.5
	c0.9,2.7-1.4,3.9-2.7,4.8s-1.8,2.8-2,6.5c-0.2,3.7-0.1,6.9,2.3,8.9c-7.3-2.6-6.3-10.6-6.3-10.6c-2.2,3.5-1.6,8-0.7,9.9
	c-4.1-3.1-3.6-8.7-3.2-11.3c-2.8,4.3-1.5,11.9,0,13.6c-6-4.2-4.7-11.7-3.8-14.6c-4.3,6.8-1.3,16.6-0.4,18.5
	c-9.6-10.7-5.9-23.2-5.1-25.5c-5.2,7.5-2.7,14.8-2.7,14.8s-8.5-13.3,6.7-30.6c9.4-10.8,14.5-15,11.9-31.6c0,0,8.3,15.6-3.3,27.9
	C137.8,355.4,133,362.5,136.8,371.8z"/>
<path class="st0" d="M278.1,228.1c-1.6-2-3.3-3.4-7.5-5c-4.2-1.6-6.1-3.2-6.1-3.2s-0.4,0.4-1.1,0.3c-1-0.2-0.9-1-0.5-1.2
	c-0.4-0.4-1.3-0.3-2.1,0c-0.6,0.2-1.3,0.2-1.4-0.3c-0.1-0.4,0.1-0.6,0.3-0.7c-0.7-0.3-1.5,0-2.1,0.4c0,0-0.8,0.6-1.4,0.1
	c-1.2-0.9-2-0.7-2-0.7s0.5,1-0.6,1.2c0,0-1.4,0.2-1.8-1.1c-0.6,0.3-0.8,1-0.7,1.3c-1.4,0.3-2.6-0.6-2.6-0.6
	c1.2-1.3,5.6-2.8,11.5-2.6c6.4,0.1,14.8,4.6,14.9,4.7c0.2,0.1,0.4,0,0.4,0s0.2-0.3,0.3-0.4c0.1-0.2-0.1-0.3-0.1-0.3
	c-5.2-3.1-9.8-6.3-18.2-6.7c-6.9-0.3-12.3,2.8-12.3,2.8c-2.5,1.4-4,0.3-4,0.3c-0.1,1,0.2,1.7,0.2,1.7c-1.9,0.4-2.9-0.6-2.9-0.6
	s0,1.7,0.5,2.3c-1.9,0.1-2.9-1.1-2.9-1.1s-0.1,1.9,1,3c-1.8,0.3-3.5-1.4-3.5-1.4s-0.3,2.5,1.9,3.8c-2.4,0.8-4.4-1.2-4.4-1.2
	c-0.3,2.7,2.2,4,2.2,4s-2.2,0.5-3.7-0.5c0.6,4.1,6.8,3,6.8,3s0.4,1.6-2.6,3c0,0,1.6,1,4.6-0.6c0.1,1.2-1.7,2.3-1.7,2.3
	s1.6,0.2,3.5-0.9c0,0,0.1,1.1-1,1.8c0.8,0.3,2.1-0.1,2.5-0.4c0,0,0.1,0.7-0.4,1.1c1.6,0,2.2-0.5,2.3-0.6c0,0,0.4-0.4,0.3,0.6
	c-0.1,0.6,0.4,0.8,0.4,0.8s0.5-1.2,3.1-1.6c0.1,0.7,1,1.4,2.5,1.5c-0.3-0.3-0.9-2.7,2.3-2.5c0,0,0.1,0,0.2,0c1.2,0.1,3.2,0,5.3-1.5
	c2.2-1.5,3.3-3,3.2-5.6c0-1.9-0.7-2.3-1-2.3c0,0.2-0.1,0.4-0.1,0.4s-0.3,0.7-1.2,0.8c-1.1,0-2-0.6-2-1.7c0-1.1,1-2,2.4-2
	c1.4-0.1,6.1-1,17.3,6.3c0,0,0.3,0.2,0.5,0.2c0.4,0,0.9,0.1,1.3,0C278.2,228.5,278.1,228.3,278.1,228.1z M240.4,228.7
	c0,0,1.7-3.7,6.9-4.8c-0.8,0.9-1.3,2.1-1.3,3.5c0,2.3,1.4,4.2,3.4,5C247.2,232.3,241.9,232,240.4,228.7z"/>
<path class="st0" d="M266.4,300.3c-2.7-3.4-7.5-6.3-8.4-6.5c-0.8-0.2-0.6-0.7-0.6-0.7c0-0.3,0.2-0.3,0.2-0.3c1.4,0.2,7.8,0.7,13-0.1
	c6-1,21.5-8.4,33.4-3.5c0,0,2.3-0.2,3.8-0.8c1.6-0.6,4-1.6,6-1.3c2.1,0.3,2.8,0.3,7.2,2.8c1.4,0.8,3.1,1.2,4.1,1.1
	c0,0-2.3,2.8-4.4,9.2c-2.1,6.4-4.2,19.3-24.5,19c-9.6-0.1-19.1-3.4-24.1-10.8C272.3,308.5,269.1,303.7,266.4,300.3z M316.7,294.2
	c-0.2-1-8,2.5-24.4,1.9c-14.2,0-19.9,1.2-19.9,1.2s2.3,2.5,7.8,5.5c8.3,3.3,12.9,3.8,19.9,3.2c7-0.6,8.4-1.7,12.1-4.4
	C315.8,299,316.9,295.5,316.7,294.2z"/>
<path class="st1" d="M299.5,290.4c0.4,0,0.2,0.5,0.2,0.8c-2,1-4.6-1-6.4,0.8c-0.8,0.1-1.5-0.1-2.1-0.6c0-1.5,2-0.7,2.8-1.5
	C296.4,288.8,297.6,292.2,299.5,290.4"/>
<path class="st1" d="M312.2,307.7c-3.5,2.6-7.5,5.8-12.1,4.2c-0.5-0.6,0-1.5,0.7-2c2,0.5,3.5,0.2,4.8-1.5c2.5,0.3,4.5-0.5,6.6-1.3
	V307.7z"/>
<path class="st1" d="M296.6,310.7c0.6,0.2,0.3,0.9,0.4,1.3c-1.4,0.5-3,0.1-4.2-0.4l-1.7-1.6c1.5-0.9,2.5,1.2,4.1,1.1L296.6,310.7z"
	/>
<path class="st0" d="M287.2,274.8c0,0,0.3-3.3,5.2-3.8c3.9-0.4,5.4,2.9,9.2,4c3.8,1.1,8.1-0.4,10-1.6c0.2-0.1,0.4-0.1,0.7,0.3
	s-1.5,2.8-6.4,3.1c-5,0.2-9.4-2.3-10.5-3.1c0,0-1.5,1.2-3.4,2C290.4,276.3,288,276.6,287.2,274.8z"/>
<path class="st0" d="M283.5,275.5c0,0-7,1.1-7.5-4.6c0.2-5.3,4.3-5.6,4.3-5.6s0.6,0.6-0.2,3.1C280.1,268.4,278.5,272.4,283.5,275.5z
	"/>
<path class="st0" d="M307.8,218c0,0-6.8,5-4.3,17c2.2,11,8.9,21.3,8.9,21.3s-4.8-16.2-6.1-23.6C305.1,225.8,307.1,220.1,307.8,218z"
	/>
<path class="st0" d="M274.1,229.4c0.4,0,1,0.2,1,1.3c0,1.3-1.2,1.4-1.2,1.4s-1-0.4-2.7-0.3c-2.6,0.2-4.5,1.6-7.9,2.9
	c-3.4,1.3-4.8-0.4-4.8-0.4s2.5-0.1,5.7-1.9c4.6-2.5,7.7-2.3,8.8-2.2C272.9,230.2,273.1,229.4,274.1,229.4z"/>
<path class="st0" d="M337.9,201.6c0,0,3,1.8,4,2.6c0.1,0.1,0.3,0.3,0.3,0.5c0,0.2-0.1,0.6-0.6,0.4c-0.5-0.2-3.3-1.4-5-1.7
	s-4.3-0.2-7.8,2c-5.2,3.3-9.8,6.3-11.9,8.4c0,0-3.6,3.5-5.3,1.5c-1.7-2,0.1-4.4,2.7-5.9c2.9-1.7,4.1-2.2,7.2-4.6
	c2.1-1.6,5.7-4.7,10.4-4.6C335.7,200.2,337.9,201.6,337.9,201.6z"/>
<path class="st0" d="M222.5,214.7c16.6-11.7,23.1-11.3,28.1-11.9c0.9,2,2.9,1.2,5,1.3c2.1,0.1,2.1,1.9,2.1,1.9
	c6.5,0.3,13.7,4.1,15.7,5.1s4.6,2.7,4.6,2.7s2.4,1.3,3.5-1.6s-2.3-4.5-2.3-4.5c0.4,0.1-1.1-0.5-2.6-1.3c-1-0.5-5.2-2.5-6.8-3.2
	c-1.1-0.5-2-0.9-2.6-1.2c-1.4-0.7-5.7-2.3-9.2-3.1c-3.5-0.8-7,0.1-7,0.1c-14.1,3.1-29.4,15-29.4,15s-0.6,0.5-0.4,1
	C221.4,215.5,222.5,214.7,222.5,214.7z"/>
<g>
	<path class="st1" d="M192.6,209.2c0,0-4,9.9-14.3,11.1c0,0,11.7,1.9,16.1-10.3c0,0,5.4-10.2,6.9-12.7
		C201.3,197.3,196.4,201.2,192.6,209.2z"/>
	<path class="st1" d="M190.3,208.5c0,0,6-9.3,7.7-11.4c0,0-4.7,3.8-9.3,10.5c0,0-4.9,8.5-14.2,8.7
		C174.5,216.3,184.6,218.9,190.3,208.5z"/>
	<path class="st1" d="M186.7,206.8c0,0,6.4-8.4,8.3-10.2c0,0-4.5,3.6-9.5,9.3c0,0-5.6,7.1-13.8,6.5
		C171.7,212.3,180.2,215.5,186.7,206.8z"/>
</g>
<path class="st1" d="M192.2,138.4c0,0,0,0,1.5-0.2c1.1,3.6,3.1,4.6,6.3,4.6c-1.9-2.2-0.1-4.1-0.1-4.1s-1.8-0.6-2-1.5
	c3.3-7.2,7.2-9.5,7.2-9.5l0.1-4.2c-0.6,0.1-7,4.8-10.3,11.9c0.7-6.4,4.1-11.8,10.9-17c-2.1-0.1-6.9,1.2-10,4.1
	c-0.3-3.8,3.3-5.4,3.3-5.4l-1.1-1c0,0,2.8-3.3,6.1-5.5c-4.3,0.3-10.2,3.5-15.6,8.1c0.1-2.6,2.4-5.6,3.7-6.8
	c-4.3,0.5-6.7,2.9-6.7,2.9s2.9-6.5,5.9-10.3c-8.9,4.4-16.3,15.5-16.3,15.5s3.1-2.2,5.5-2.1c-1.8,1.5-3.6,2.6-4.7,7
	c1.8-1.8,5.7-2.4,5.7-2.4s-2.1,1.3-1.7,4.1c1.5-2.4,4.4-2.9,5.7-2.9c-1.8,1.2-2.6,3.3-2.3,5.1c1-1,3.1-2.8,4.5-2.7
	c-2.7,2.3-4.3,5.2-4.4,7.5c2.6-2.4,4.5-2.3,4.5-2.3s-2,2.8,0,6.5c0,0,1.3-6.6,7.1-9.3C190.6,133.8,192.2,138.4,192.2,138.4z"/>
<path class="st1" d="M212.2,135.6c3.5-4.7,7.7-3.6,7.7-3.6s-6.2,3.5-5.9,10.6c1.2-2.5,3.4-6.6,6.3-7.7c2.5,1,3.3,1.2,3.3,1.2
	s-2.5,2.2-2.6,6.1c2.1-2.4,5.7-5.4,8.5-5.9c-1.2,1.5-1.5,3.7-1.5,3.7s1.3-1.5,5.5-1.8c-1.6,1.2-2.4,2.4-2.6,4.6c0,0,1.9-2,7.8-1.4
	c-2.8,0.5-5.1,2.2-5.4,4.5c1-0.3,2.4,0.3,2.6,0.7c-1.9,0.6-1.9,1.6-2.3,3.3c-0.4,1.7,0.5,2.9-2.5,4.1c-3.1,1.2-3.6,3.3-3.6,3.3
	s-1.6-2.8-1-3.9c-0.5,0.3-1.7,1.2-1.7,1.2s0.2-3.3,0.8-4.2c-1.1-0.1-3.4,1.4-3.4,1.4s1.1-6.1,2.4-7.4c-2.4,0.8-5.5,5-5.5,5
	s-0.8-1.8-0.5-3.2c-1.1,0.1-3.2,1.7-3.2,1.7s1.5-4.3,0.9-4.7c-3.4,0.5-5.4,3.3-5.4,3.3s-1.6-3,0.2-5.1c-3.5,0.8-5.1,5.1-5.1,5.1
	l-2.9-1.7c0,0,0.4-3.2,4.4-4.4c-2.3-0.7-6.2,1.7-6.2,1.7c-1.2-2.8,2.4-4.3,2.4-4.3s-2.4,0.2-3.3-1.3c3.7-7.7,7.7-7.6,7.7-7.6
	s0,0,0.2,3.5c-3,0.9-3.4,2.3-3.4,2.3s2.4,1.4,4.5,0.3c0,0,1.1-3.2,5.4-3.5C212.9,133.1,212.2,135.6,212.2,135.6z"/>
<path class="st1" d="M255,117.9c1.1-0.2,5.3,0.4,5.3,0.4s-2.5,0.9-2.5,1.8c0.8,1.3,3,1.4,5.6,1.6c-1.4,0.2-3.7,1-4.3,1.9
	c0.8,1.6,4.9,2.5,8.3,2.8c-1.8,0.6-2.8,2.2-2.8,2.2s2.2,0.4,4.1,1.2c-3.2,0.6-4,2.4-4,2.4s1-0.3,3.9,0c-2.6,0.7-3.9,2.3-5.1,3.3
	c3.7-0.2,4.8,2,4.8,2s6.1-1.4,9.3-0.5c-0.6-1.1-6.4-2.7-8.6-2.2c2.6-2.1,9.5-1.7,9.5-1.7c-1.6-2-5.5-1.7-5.5-1.7s1.3-2.5,1.3-3.4
	c-0.8-0.9-2.7-0.7-2.7-0.7s1.2-2.1,1.2-3.7c-0.3-2.7-7.8-3.4-7.8-3.4s2.7-0.7,5.3-0.7c-0.7-1.7-5.8-3.3-9-3c3.4-3,7.5-1.6,7.5-1.6
	c-0.9-2.8-2.2-4.3-3.1-4.7c-5.7-2.1-10.9-1.2-17.5,0.7c0,0,5.7,0.4,7.2,2.1c-1.6,0-3.3,0.8-3.5,1.2
	C253.8,114.6,254.9,115.6,255,117.9z"/>
<path class="st1" d="M240.8,100.7c1.1-0.6,2.9-1.7,2.9-1.7s-1.3-3.1-3.3-3.3c0.5-0.7,3.8-2.1,5.5-1.8c-0.7-1.1-3.1-2.2-6.5-1.1
	c-0.3-2-2.8-6-2.8-6s9-2.2,21.2,4.8c0,0-3.7-0.5-6-0.2c4.5,1.2,6.5,2.7,8.2,4.6c-3.2-0.9-9.4-0.2-11,0.6c0.4,0.7,0.4,1,0.4,1
	s6.6-1.5,11.4,1.6c-4.1-0.4-12.1-0.6-18.2,2.7C242,101.2,240.8,100.7,240.8,100.7z"/>
<path class="st1" d="M248.2,109.4c0,0,9.4-3,15.8-1.6c-0.4-1.2-1-1.3-1-1.3s-4-2.4-16.1,0.8C247.9,108.3,248.2,109.4,248.2,109.4z"
	/>
<path class="st1" d="M263.4,104.3c0,0-7.6-1.9-16.3,1.1c0,0-0.5-1.8-2.2-3.4C249.4,101,257.9,98.4,263.4,104.3z"/>
<path class="st1" d="M272.7,99.4c-0.2,0.3-0.2,0.7-0.5,0.9c-0.5-0.6-1.5-1.3-1.1-2C271.7,98.4,272.4,98.8,272.7,99.4"/>
<path class="st1" d="M272.5,101.8l-0.2,0.6l1,1c0,0,0.3-0.5,0.2-0.8S273.6,101.7,272.5,101.8z"/>
<path class="st1" d="M297.9,113.6c0,0,1-1.4,2.5-2c-0.9-1.2-3.2-1.4-3.2-1.4s1.8-1.9,5-1.1c-0.6-2.5-8-3.5-10.1-2.3
	c0.5-3,5.2-3.2,5.2-3.2s-3-1.3-7-1c0.4-0.9,3.3-2.7,7.8-2.1c-1-1.5-6.6-2.4-9.8-2c0.6-1.4,2.6-2.3,2.6-2.3s-3.3-2.1-10.9-1.9
	c4.5-1.6,10-1,10-1s15.1,1.3,22.3,12.3c-1.8-0.9-4.3-0.4-4.3-0.4s3.3,1.2,4.3,6.3c-3.3-2.1-7.1-0.9-7.1-0.9s4.8,0.9,8.2,5.9
	c-1.7,0-1.9,0.6-1.9,0.6s1.5,0.7,2.8,2.9c-3.8-0.6-6.2,0.8-6.2,0.8s4.1-0.3,5.8,2.7c-1.6,0.3-1.9,1.7-1.9,1.7s2.4-0.2,2.4,1.4
	c-2.2,0-2.7,1.3-2.7,1.3s2.1,0.6,2.7,2.2c-1.5,0.6-1.9,1.4-1.9,1.4s5.6,2.4,6.6,6.5c-3.3-2.9-7.8-5.9-16.3-5.8c1.4-1.7,3.4-2,7.2-2
	c-0.3-1.4-3.3-2.1-6.8-2.8c1.6-0.2,4.5-1.4,4.9-2.2c-0.5-1.1-4.7-2.9-8.9-3.9c0,0,2.9-3.1,7.2-2.6
	C306.3,118.5,302.3,113.4,297.9,113.6z"/>
<path class="st1" d="M306.3,135.8c0,0,6.4-0.7,12,4.5c-0.5,0.9-1.9,1.4-1.9,1.4s3.6,1.1,4.1,5.2c-7.3-5.6-15-5.4-15-5.4
	s0.5-2.2,4.7-1.8C309.2,137.3,306.3,135.8,306.3,135.8z"/>
<path class="st1" d="M224.7,404.8c0.3,1.9-0.4,4.4-2.2,5.1c0.3-1.4-0.4-3.8-1.5-4.4c-0.2,3.5-1.4,4.9-2.9,5.6
	c0.7-1.3,0.1-3.8-0.8-4.1c-2.3,3.3-7.3,1.6-7.6-0.5c3.1,1.2,5-1,5.1-2.7c-5.1-1.2-3.1-6.3-3.1-6.3s1,4,4.2,3.4
	c3.1-0.6,3.7-2.9,3.1-4.7c-0.6-1.9-2.2-3.5-8.2-6.2c-11.2-5.1-20.6-13.3-24.4-20.2c2.3,3.2,14.4,14.9,29.1,20.4
	c16.1,6,12,18.6,12,18.6S226.3,404.9,224.7,404.8z"/>
<path class="st0" d="M343.4,220.4c2.2-1.3,1.8-3.3,1.8-3.3s-1.2,0.9-2.9,0.7c1.5-0.6,1.3-2.2,1.3-2.2c-2-1.7-6.2-3.9-10.3-3.4
	c-7,0.9-14.6,4.3-18.8,9.2c0.8,1,0.5,2.5,0.1,3.2c-0.4,1.4-2.6,2.9-0.8,3.8c2,1,2.3,1,2.8,1.3c-2.3-3.4,1.2-6.6,1.2-6.6
	s2.2-2.1,4.7-3.4c-1.2,1-2,2.3-2,3.8c0,2.7,2.5,4.9,5.6,5.2c-5.7-0.2-7.4-1.5-7.4-1.5c1,0.8,0.8,1.7,0.8,1.7c0.7,1,3.7,1,3.7,1
	c8,0,7.4,1.1,12.5,0.4c5.6-0.7,6-3.4,6-3.4c0.6-0.8,0.6-1,0.3-1.7c-0.3-0.7-0.5-0.6-1.1-0.6c-0.5,1.5-2.5,2-2.9,1
	c-3.4,2.9-9.2,3-10.5,3c3.4-0.2,6-2.5,6-5.3c0-1-0.3-2-0.8-2.8c-0.8-1.1-2.1-1.7-3-1.9c-1.6-0.2-1.7,0.7-1.7,0.7
	c1.2-0.2,1.2,0.8,1.2,0.8c0,1-1.4,1-1.4,1s-1.4,0-1.5-1.3c-0.1-1,0.7-1.5,1.5-1.7c8.2-0.9,12.7,3.7,13,4c0,0,2.1,2.4,3.9,0.8
	c1-0.9,1.1-2.7,2.4-3.3C346.4,219.6,344.6,219.7,343.4,220.4z M335.2,215.5c0,0-1.6-0.9-3.4-0.2c-1.8,0.7-4.1,1.4-5.6,0.7
	c0,0,1.6-1.1,4.6-1.6c1.5-0.2,4-0.5,5.6,0C336.7,214.9,335.2,215.5,335.2,215.5z M339,216.7c-0.4-0.5-1.2-0.4-1.2-0.4
	s-0.4-0.2-0.2-0.8c0.2-0.6,0.7-0.7,1.2-0.5C339.5,215.2,339.2,216.4,339,216.7z"/>
<path class="st0" d="M575,311.4c-0.7,0.3-1.5,2.5-1.5,2.5s-0.5,2.5-3.1,1.6c-1.4,0.8-3,1.6-8.2,1c-5.2-0.6-65.1-3.6-65.1-3.6
	s-0.1-11.3,0.9-15.2c0.8,0,1.7,0,1.7,0s57.2-0.4,63.7-0.9c7-0.5,10.4,1.5,10.4,1.5s2.7,1,3.4,4.3c0,0,0.5,1.9,0,4.6
	C576.6,310.2,575.7,310.7,575,311.4z"/>
<path class="st0" d="M575,311.4c-0.7,0.3-1.5,2.5-1.5,2.5s-0.5,2.5-3.1,1.6c-1.4,0.8-3,1.6-8.2,1c-5.2-0.6-65.1-3.6-65.1-3.6
	s-0.1-11.3,0.9-15.2c0.8,0,1.7,0,1.7,0s57.2-0.4,63.7-0.9c7-0.5,10.4,1.5,10.4,1.5s2.7,1,3.4,4.3c0,0,0.5,1.9,0,4.6
	C576.6,310.2,575.7,310.7,575,311.4z"/>
<path class="st1" d="M572,309.7c1.4,0.4,2.1-0.5,2.1-0.5s0.4-0.9,0.5-1.7c0.2-1.7,0.2-5.3-0.8-5.8c-1.7,0.9-1.5,4-1.2,5
	c0,0,0.4,1.3-0.1,1.8c-0.4,0.5-0.9,0.3-0.9,0.3s-1-0.4-1.4,0.5c-0.4,0.9-0.6,1.8-0.4,2.7c0.2,0.9,0.2,1.2,0.7,1.3
	c0.6,0.1,0.8-0.3,0.8-0.6c-0.1-0.3-0.4-0.9-0.4-1.7s0.1-1.2,0.3-1.3C571.5,309.5,571.9,309.6,572,309.7z"/>
<path class="st1" d="M482.6,309.8c0.4-0.8,0.2-3.5-0.1-5.1c-0.3-1.9-0.1-4.3-0.1-4.3c-2,0-3.8,0.1-5.5,0.1c0,0,2,7.5,3.2,9.1
	L482.6,309.8z"/>
<g>
	<path class="st1" d="M513.3,274.1c-0.6-0.2-1.2-0.1-1.9,0.1c0.4,0.3,0.8,0.6,1,1.1c0.8,1.8-0.3,2.7-0.3,2.7s0.4-0.7-0.1-2
		c-0.5-1.2-2-1.3-2-1.3c-0.6-0.1-6-0.5-12.4,8.3c0,0,2.2,3.8,2.1,7c0,3.2-0.4,6.8,0.3,8.3c0,0,8.9-16.3,12-18.8
		c0.9-1,1.8-1.9,2.1-3.2C514.4,275.2,514.1,274.3,513.3,274.1z"/>
	<g>
		<path class="st1" d="M467.9,281c0.8,0.1,1.4,0.4,1.8,1.6c0.7-1.3,0.3-2.4,0.3-2.4c-0.5-1.9-5.7-0.6-5.7-0.6s-1.7,0.3-4.6,1.7
			c-2.9,1.8-12.8,5-12.8,5s3.9,0.6,6.9,3c3.1,2.5,8.2,3.3,8.2,3.3c5.7-2.5,6.3-6.7,6.8-8.8C469.1,283,469.2,281.6,467.9,281z"/>
	</g>
</g>
<g>
	<path class="st1" d="M497,302.6c0.4-5.1,0.9-9,0.8-12.1c-0.2-6.1-3.3-8.3-7.2-16c-1.2-2.3-2.6-5.3-3.2-6.9
		c-0.8-2.1-0.8-2.6-1.3-3.7c-0.9-2-2.4-3.2-3.7-3.3c0,0-1.1,0.9-1.4,2.7c-0.1,1.1-0.2,3,0.4,4.7c-0.4-0.6-0.9-1.4-1.2-3.1
		c-1.2,1.9-2.1,6.7,1.3,14.9c0,0,0.2,7.7,4.8,13.9c-2.8,4.1-1.9,6.8-1.3,14.4c0.6,7.6-1.5,7.8-1.5,7.8s3.7,4.6,4.1,9.8
		c-0.1,6.1-4.3,8.9-8.7,14.1c-7,7.8-16.5,15.8-22,20.3c-1.7,1.6-3.3,2.9-4.5,3.6c0,0,1.5-1.7,4.3-4c7.7-7,18.7-19.4,18.7-19.4
		s7-8.6,9.1-11.2c2.1-2.6,1.1-4.7,0-6.5c-2.8-4.2-8-16.3-9.8-20.9c-1.8-4.6-5.6-6.1-7.8-6.5c-6.4-1.2-9.5-2-11.8-3.6
		c-5.9-4-8.5-3.7-8.5-3.7c-5-3.7-9.5-2.1-9.5-2.1s0,0,0,0c0,0,0,0,0,0c0.1,0.2,0.8,1.4,2.2,2.6c0,0,0,0,0,0c0,0,0,0,0,0
		c0.9,0.7,2,1.4,3.5,1.9c0.2,0.2-1.5,0.2-3.2-0.8c0.8,2.4,3.3,8,10.4,10.6c0,0,6.1,3.4,10.6,4.3s4.8,2.1,7.2,9.8
		c0.9,2.9,4.7,14,6,16c1.3,2,3,5.5,0,9.1c0,0-2.5,3.2-4.6,5c-2.1,1.8-6.9,5.6-10.1,9.3c-3.2,3.7-10.4,9.7-16.1,11.9
		c3.8-2.2,15-13.2,16.3-14.9c1.2-1.7,6.1-6.5,8.2-7.9c2.1-1.3,5-4.8,5.7-7.1c0.7-2.4-1.9-5.5-2.3-6.5c-0.3-1-4.2-11.3-5.6-16.3
		c-1.4-4.9-3-6.7-5.7-6.7c-1.9-0.1-1.7,0.1-4,0.1c-0.9,0-1.4,0-3.7-0.1c-0.2,0-6.3-0.3-8.8-1.1c-1.9-0.8-8.1-2-10.7-0.3v0
		c0,0,0.4,1.4,4.7,2.5c0.1,0-0.8,0.1-1.9-0.2c0.4,0.9,2.2,4.2,9.5,6.3c0.7,0.2,1.4,0.4,2.1,0.5c5,1.1,9.7,0.6,9.7,0.6
		s-0.1,1.3-2.2,1.6c-0.8,6.4,4.9,13.5,4.9,13.5s2,0.5,2.3,1.4c-1.1,1-4.1,0-4.1,0c-5,1.4-20.9,9.6-27.5,14.8c-3.1,2.4-4,3-22.9,2.3
		c-18.5-0.6-29.9,8.5-41.1,16.5c18.3-21,41.6-19,41.6-19c6,0.2,12.1,1,16.1,0.8c3.5-0.2,5.8-2.1,5.8-2.1
		c9.2-7.1,24.4-14.3,27.3-14.9c-0.5-0.6-1.5-2.7-1.5-2.7c-3.2-1.4-7.3-0.7-11.6-0.2c-2.6,0.3-5.8,0-8.6-0.3c-3-0.3-8.5,0.3-11.3,2.9
		c-3.9-2.2-6.8-2.7-7.1-2.8c-0.3-0.1-6.8-0.3-7.2-2.3c9.5-0.1,6.9,1,11.5,1.3c4.6,0.3,9.9-6.7,9.9-6.7s3.5-4.5,6.3-6.4
		c-3.2-1.4-4.2-4.3-4.2-4.3c-1.3-1-3.3-2.6-3.3-4.3c6.7-3.9,13.3-0.5,13.3-0.5c1.3,0.5,2,1,4.3,0.6c0.4-0.1,2.1-2,2.1-2
		c-7.2-1.1-9.3-6.4-9.3-6.4c-1.8-3.2-1.3-4.4-2.1-5c-2.3,0.6-4.8,3.9-14.6,8.5c-8.9,4.1-19.1,8-19.1,8s-7,2.3-18,9.3
		c-9.4,5.5-13.6,12.7-18.8,19.5c-6.7,8.8-13.5,16.7-13.5,16.7c-9,14.1-6.5,25.7-6,31.8c0.4,5.4-1.4,24.8-1.7,29h50.5
		c-0.3-2.6,0-9.6,0-9.6s0.3-12.5,6.7-17.7c0.3-0.3,0.5-0.5,0.8-0.6c0.7-0.5,1.1-0.7,1.1-0.7s21.9-9.4,33.3-12.1
		c12.1-3.5,22.9-14.4,24.4-15.8c1.5-1.4,9-9,9-9c19.2-14,22.7-19.5,24.1-21.1c1.3-1.6,1.1-7.8,1.1-7.8S496.6,308.1,497,302.6z"/>
</g>
<path class="st1" d="M499.4,300.2c0,0,59.6-0.8,61.5-0.9c2-0.2,6.8-1.3,8.4,1.8c0.9,1.2,1,4.5-1.3,4.8c0.2,1.1-0.1,2.6-1.4,2.5
	c0,0,0.7,1.4,0,2.4c-0.6,1-0.1,2.6,0.3,2.9c0.4,0.3,1.8,1.5-3.5,1.1c-5.3-0.4-64.7-3.6-64.7-3.6S499.4,301.8,499.4,300.2z"/>
<path class="st4" d="M559.9,267.1c-21.4-8.4-38.7-6.4-46.6-8.9c-7.9-2.5-10.4-2.8-10.6-7.8c0-3.3,5.6-3.4,5-6.3
	c-1-5-15.3-5.8-17.9-5.8c-2.6,0-34.7-1.9-34.6-9.3c-0.7-3.8,7.6-4.7,11.9-5.3c4.3-0.6,26-4.1,26.9-12.3c0.9-8.1-25-16.2-62.2-18.3
	c0,0-22.9-0.6-25.5-7.4c0,0-1.1-3.6,6.5-5.3c7.6-1.7,4.2-6-2.5-7.6c-6.7-1.6-14.6-3.3-13.5-9.3c1.5-7.8,30.1-3.9,30.1-3.9
	s45,7.2,72.6,3.1c33.8-4.4,32.5-13.5,32.5-14.9c0-3-3.3-5.6-12.3-8.5c-11.4-4.2-14-10.9-10.7-15.2c0,0,2.6-6.8,28.3-13.6
	c25.6-6.9,19.8-23.9,18.5-26.2c-1.5-2.6-12.8-27.9-87.2-18.7c0,0-33.3,5.8-50.3-4c0,0-5.3-3-9.5-5.1c0.5,4.9,2.8,10,8.9,17.3
	c9,10.8,30.4,12,30.4,12c6.3,0.4,13.1,0.4,19.9,0.2c24.5-0.7,48.8-3,49.4,12.9c0.5,19.3-66.9,26.3-66.9,26.3
	c-11.2,1.2-10.1,4.8-10.1,4.8c0.2,5,13.7,5.9,12.1,11.4c-1.3,7.6-26.5,8.3-26.5,8.3s-24.6,2.1-33.5,3.5c-8.9,1.5-18.3,5.4-19.1,10.7
	c-0.8,5.2,4.8,6.1,8.4,6.2c3.7,0.1,16.3,3.3,17,7.2c0.8,4-5.8,5.5-13.2,6.6c-7.4,1.1-16.4,3.8-15.4,7c1,3.3,7.9,5.2,7.9,5.2
	s10.6,3.4,15.1,5.3c4.4,2,5.4,4.9,1.1,6.4s-3.9,3.2-3.9,3.2c0,5.8,9.1,9.2,16.9,11.2c7.8,2,22.5,3.8,26.9,7.2
	c4.3,3.4-2.9,5.6,7.7,11.3c10.6,5.7,33.6,5.5,33.6,5.5c9,0.3,15.5,1.9,15.7,9.2c0.3,8.9,14.3,11.5,23.9,12.8
	c9.6,1.3,30.9,2.2,44.3,6.5c13.4,4.3,11.9,15.7,11.9,15.7S581.4,275.4,559.9,267.1z M432.9,218.3c-15.4-0.3-27.9-4-27.8-8.2
	s12.7-7.4,28.1-7c15.4,0.3,27.9,4,27.8,8.2C460.9,215.4,448.3,218.6,432.9,218.3z"/>
<g>
	<path class="st1" d="M417.5,73.7c9,10.8,30.4,12,30.4,12c29.1,2.1,68.6-7.2,69.3,13.1c0.5,19.3-66.9,26.3-66.9,26.3
		c-11.2,1.2-10.1,4.8-10.1,4.8c0.2,5,13.7,5.9,12.1,11.4c-1.3,7.6-26.5,8.3-26.5,8.3s-24.6,2.1-33.5,3.5
		c-8.9,1.5-18.3,5.4-19.1,10.7c-0.8,5.2,4.8,6.1,8.4,6.2c3.7,0.1,16.3,3.3,17,7.2c0.8,4-5.8,5.5-13.2,6.6c-7.4,1.1-16.4,3.8-15.4,7
		s7.9,5.2,7.9,5.2s10.6,3.4,15.1,5.3c4.4,2,5.4,4.9,1.1,6.4s-3.9,3.2-3.9,3.2c0,5.8,9.1,9.2,16.9,11.2s22.5,3.8,26.9,7.2
		s-2.9,5.6,7.7,11.3c10.6,5.7,33.6,5.5,33.6,5.5c9,0.3,15.5,1.9,15.7,9.2c0.3,8.9,14.3,11.5,23.9,12.8c9.6,1.3,30.9,2.2,44.3,6.5
		c13.4,4.3,11.9,15.7,11.9,15.7s10.2-15-11.2-23.4c-21.4-8.4-38.7-6.4-46.6-8.9c-7.9-2.5-10.4-2.8-10.6-7.8c0-3.3,5.6-3.4,5-6.3
		c-1-5-15.3-5.8-17.9-5.8c-2.6,0-34.7-1.9-34.6-9.3c-0.7-3.8,7.6-4.7,11.9-5.3c4.3-0.6,26-4.1,26.9-12.3c0.9-8.1-25-16.2-62.2-18.3
		c0,0-22.9-0.6-25.5-7.4c0,0-1.1-3.6,6.5-5.3c7.6-1.7,4.2-6-2.5-7.6c-6.7-1.6-14.6-3.3-13.5-9.3c1.5-7.8,30.1-3.9,30.1-3.9
		s45,7.2,72.6,3.1c33.8-4.4,32.5-13.5,32.5-14.9c0-3-3.1-5.5-12.3-8.5c-11.2-4-13.8-10.7-10.7-15.2c0,0,4.2-7.2,28.3-13.6
		c25.5-6.8,20-24.3,18.4-26.3c-1.6-2.1-13.1-27.7-87.2-18.6c0,0-33.3,5.8-50.3-4c0,0-5.3-3-9.5-5.1
		C409.1,61.3,411.5,66.4,417.5,73.7z M432.9,218.3c-15.4-0.3-27.9-4-27.8-8.2c0.1-4.2,12.7-7.4,28.1-7c15.4,0.3,27.9,4,27.8,8.2
		C460.9,215.4,448.3,218.6,432.9,218.3z"/>
</g>
</svg>
