<?xml version="1.0" encoding="UTF-8"?><svg version="1.1" width="512px" height="512px" viewBox="0 0 512.0 512.0" xmlns="http://www.w3.org/2000/svg" xmlns:xlink="http://www.w3.org/1999/xlink"><defs><clipPath id="i0"><path d="M193.241883,0 L193.289732,0.0882986529 C194.842218,2.96531308 233.654379,75.7846754 233.654379,165.184854 C233.654379,184.830302 231.718151,203.588843 228.770016,221.06932 C233.598256,210.617768 239.063403,200.041217 245.494539,189.582012 C289.242075,118.389693 356.226903,80.0392758 356.226903,80.0392758 C356.226903,80.0392758 352.299174,157.132967 308.567794,228.326137 C299.782062,242.61103 290.071159,255.510715 280.152771,267.104276 C331.997042,245.195899 384.359897,248.204888 386.433673,248.334011 L386.497372,248.338082 C386.497372,248.338082 354.195437,288.583911 301.111997,311.182595 C280.858555,319.802511 260.52178,324.587384 243.086371,327.2379 C251.31768,327.846744 260.089806,329.050828 269.028599,331.24301 C305.379072,340.131828 331.287397,361.579974 334.227547,364.088282 L334.381287,364.220105 C334.422489,364.255636 334.453609,364.282662 334.474534,364.300897 L334.506622,364.32896 C334.506622,364.32896 298.703829,372.634249 260.04984,363.180148 C235.008123,357.044082 215.059954,345.035554 204.033571,337.294893 L213.261481,411.116469 C213.690053,414.624129 212.722364,418.150496 210.577802,420.813767 C208.431539,423.471085 205.34905,425 202.095642,425 L184.416185,425 C181.161927,425 178.079438,423.471085 175.934876,420.813767 C173.790314,418.150496 172.820074,414.624129 173.250347,411.116469 L182.478256,337.28894 C171.453574,345.027901 151.503704,357.043231 126.446682,363.180148 C87.793543,372.635099 51.9898999,364.32896 51.9898999,364.32896 L52.0219869,364.300897 C53.0681946,363.389124 79.602081,340.502195 117.471323,331.24301 C126.405015,329.050828 135.177141,327.846744 143.409301,327.2379 C125.979844,324.587384 105.643069,319.802511 85.3896266,311.182595 C32.3044864,288.583911 0,248.338082 0,248.338082 C0,248.338082 53.4286783,244.748789 106.347152,267.105126 C96.4270637,255.511566 86.7153096,242.61188 77.9321287,228.326987 C34.201599,157.133818 30.2704687,80.0401261 30.2704687,80.0401261 C30.2704687,80.0401261 97.2595483,118.390543 141.001983,189.582862 C147.419513,200.042067 152.898265,210.611816 157.728207,221.065068 C154.783473,203.590543 152.845544,184.831152 152.845544,165.186555 C152.845544,73.960182 193.241883,0 193.241883,0 Z"></path></clipPath><clipPath id="i1"><path d="M386.497372,0 L386.497372,425 L0,425 L0,0 L386.497372,0 Z"></path></clipPath><linearGradient id="i2" x1="193.248686px" y1="4.90102177e-15px" x2="193.248686px" y2="425px" gradientUnits="userSpaceOnUse"><stop stop-color="#3EDA1F" offset="0%"></stop><stop stop-color="#1F760C" offset="100%"></stop></linearGradient></defs><g transform="translate(62.999999999999915 44.0)"><g clip-path="url(#i0)"><g clip-path="url(#i1)"><polygon points="0,0 386.497372,0 386.497372,425 0,425 0,0" stroke="none" fill="url(#i2)"></polygon></g></g></g></svg>